M48
; DRILL file {KiCad (7.0.0)} date Wed Jan 17 20:31:42 2024
; FORMAT={-:-/ absolute / metric / decimal}
; #@! TF.CreationDate,2024-01-17T20:31:42+01:00
; #@! TF.GenerationSoftware,Kicad,Pcbnew,(7.0.0)
; #@! TF.FileFunction,NonPlated,1,2,NPTH
FMAT,2
METRIC
; #@! TA.AperFunction,NonPlated,NPTH,ComponentDrill
T1C1.700
; #@! TA.AperFunction,NonPlated,NPTH,ComponentDrill
T2C1.702
; #@! TA.AperFunction,NonPlated,NPTH,ComponentDrill
T3C4.000
%
G90
G05
T1
X72.53Y-45.39
X72.53Y-64.44
X72.53Y-83.49
X72.53Y-102.54
X82.69Y-45.39
X82.69Y-64.44
X82.69Y-83.49
X82.69Y-102.54
X91.58Y-45.39
X91.58Y-64.44
X91.58Y-83.49
X91.58Y-102.54
X101.74Y-45.39
X101.74Y-64.44
X101.74Y-83.49
X101.74Y-102.54
X110.63Y-45.39
X110.63Y-64.44
X110.63Y-83.49
X110.63Y-102.54
X120.79Y-45.39
X120.79Y-64.44
X120.79Y-83.49
X120.79Y-102.54
X129.68Y-45.39
X129.68Y-64.44
X129.68Y-83.49
X129.68Y-102.54
X139.84Y-45.39
X139.84Y-64.44
X139.84Y-83.49
X139.84Y-102.54
X143.968Y-121.59
X148.73Y-45.39
X148.73Y-64.44
X148.73Y-83.49
X148.73Y-102.54
X154.127Y-121.59
X158.89Y-45.39
X158.89Y-64.44
X158.89Y-83.49
X158.89Y-102.54
X163.017Y-121.59
X167.78Y-45.39
X167.78Y-64.44
X167.78Y-83.49
X167.78Y-102.54
X173.177Y-121.59
X177.94Y-45.39
X177.94Y-64.44
X177.94Y-83.49
X177.94Y-102.54
X182.067Y-121.59
X192.227Y-121.59
T2
X187.624Y-64.128
X192.581Y-59.171
T3
X77.61Y-45.39
X77.61Y-64.44
X77.61Y-83.49
X77.61Y-102.54
X96.66Y-45.39
X96.66Y-64.44
X96.66Y-83.49
X96.66Y-102.54
X115.71Y-45.39
X115.71Y-64.44
X115.71Y-83.49
X115.71Y-102.54
X134.76Y-45.39
X134.76Y-64.44
X134.76Y-83.49
X134.76Y-102.54
X149.047Y-121.59
X153.81Y-45.39
X153.81Y-64.44
X153.81Y-83.49
X153.81Y-102.54
X168.097Y-121.59
X172.86Y-45.39
X172.86Y-64.44
X172.86Y-83.49
X172.86Y-102.54
X187.147Y-121.59
T0
M30
