%TF.GenerationSoftware,KiCad,Pcbnew,(7.0.0)*%
%TF.CreationDate,2024-01-17T20:31:43+01:00*%
%TF.ProjectId,junon-kb,6a756e6f-6e2d-46b6-922e-6b696361645f,rev?*%
%TF.SameCoordinates,Original*%
%TF.FileFunction,Drillmap*%
%TF.FilePolarity,Positive*%
%FSLAX45Y45*%
G04 Gerber Fmt 4.5, Leading zero omitted, Abs format (unit mm)*
G04 Created by KiCad (PCBNEW (7.0.0)) date 2024-01-17 20:31:43*
%MOMM*%
%LPD*%
G01*
G04 APERTURE LIST*
%ADD10C,0.100000*%
%ADD11C,0.200000*%
%ADD12C,0.170000*%
%ADD13C,0.170180*%
%ADD14C,0.400000*%
G04 APERTURE END LIST*
D10*
X20100003Y-6045685D02*
G75*
G03*
X20041421Y-5904264I-200003J-5D01*
G01*
X19421419Y-5001419D02*
G75*
G03*
X19421421Y-5284264I141421J-141421D01*
G01*
X20041421Y-4381421D02*
G75*
G03*
X20100000Y-4240000I-141421J141421D01*
G01*
X20100000Y-4240000D02*
X20100000Y-3800000D01*
X19421421Y-5001421D02*
X20041421Y-4381421D01*
X20041421Y-5904264D02*
X19421421Y-5284264D01*
X20100000Y-8870000D02*
X20100000Y-6045685D01*
X20100000Y-11017157D02*
X20100000Y-9770000D01*
X20100000Y-3800000D02*
G75*
G03*
X19900000Y-3600000I-200000J0D01*
G01*
X19700000Y-12900000D02*
X19700000Y-11582843D01*
X7000000Y-11200000D02*
X13700000Y-11200000D01*
X19758577Y-11441420D02*
G75*
G03*
X19700000Y-11582843I141423J-141420D01*
G01*
X7000000Y-3600000D02*
G75*
G03*
X6800000Y-3800000I0J-200000D01*
G01*
X20041423Y-11158580D02*
G75*
G03*
X20100000Y-11017157I-141423J141420D01*
G01*
X19900000Y-3600000D02*
X7000000Y-3600000D01*
X13900000Y-12900000D02*
G75*
G03*
X14100000Y-13100000I200000J0D01*
G01*
X6800000Y-3800000D02*
X6800000Y-11000000D01*
X13900000Y-11400000D02*
X13900000Y-12900000D01*
X13900000Y-11400000D02*
G75*
G03*
X13700000Y-11200000I-200000J0D01*
G01*
X14100000Y-13100000D02*
X19500000Y-13100000D01*
X19500000Y-13100000D02*
G75*
G03*
X19700000Y-12900000I0J200000D01*
G01*
X6800000Y-11000000D02*
G75*
G03*
X7000000Y-11200000I200000J0D01*
G01*
X19758579Y-11441421D02*
X20041421Y-11158579D01*
D11*
D12*
X7168000Y-4454000D02*
X7338000Y-4624000D01*
X7338000Y-4454000D02*
X7168000Y-4624000D01*
X7168000Y-6359000D02*
X7338000Y-6529000D01*
X7338000Y-6359000D02*
X7168000Y-6529000D01*
X7168000Y-8264000D02*
X7338000Y-8434000D01*
X7338000Y-8264000D02*
X7168000Y-8434000D01*
X7168000Y-10169000D02*
X7338000Y-10339000D01*
X7338000Y-10169000D02*
X7168000Y-10339000D01*
X8184000Y-4454000D02*
X8354000Y-4624000D01*
X8354000Y-4454000D02*
X8184000Y-4624000D01*
X8184000Y-6359000D02*
X8354000Y-6529000D01*
X8354000Y-6359000D02*
X8184000Y-6529000D01*
X8184000Y-8264000D02*
X8354000Y-8434000D01*
X8354000Y-8264000D02*
X8184000Y-8434000D01*
X8184000Y-10169000D02*
X8354000Y-10339000D01*
X8354000Y-10169000D02*
X8184000Y-10339000D01*
X9073000Y-4454000D02*
X9243000Y-4624000D01*
X9243000Y-4454000D02*
X9073000Y-4624000D01*
X9073000Y-6359000D02*
X9243000Y-6529000D01*
X9243000Y-6359000D02*
X9073000Y-6529000D01*
X9073000Y-8264000D02*
X9243000Y-8434000D01*
X9243000Y-8264000D02*
X9073000Y-8434000D01*
X9073000Y-10169000D02*
X9243000Y-10339000D01*
X9243000Y-10169000D02*
X9073000Y-10339000D01*
X10089000Y-4454000D02*
X10259000Y-4624000D01*
X10259000Y-4454000D02*
X10089000Y-4624000D01*
X10089000Y-6359000D02*
X10259000Y-6529000D01*
X10259000Y-6359000D02*
X10089000Y-6529000D01*
X10089000Y-8264000D02*
X10259000Y-8434000D01*
X10259000Y-8264000D02*
X10089000Y-8434000D01*
X10089000Y-10169000D02*
X10259000Y-10339000D01*
X10259000Y-10169000D02*
X10089000Y-10339000D01*
X10978000Y-4454000D02*
X11148000Y-4624000D01*
X11148000Y-4454000D02*
X10978000Y-4624000D01*
X10978000Y-6359000D02*
X11148000Y-6529000D01*
X11148000Y-6359000D02*
X10978000Y-6529000D01*
X10978000Y-8264000D02*
X11148000Y-8434000D01*
X11148000Y-8264000D02*
X10978000Y-8434000D01*
X10978000Y-10169000D02*
X11148000Y-10339000D01*
X11148000Y-10169000D02*
X10978000Y-10339000D01*
X11994000Y-4454000D02*
X12164000Y-4624000D01*
X12164000Y-4454000D02*
X11994000Y-4624000D01*
X11994000Y-6359000D02*
X12164000Y-6529000D01*
X12164000Y-6359000D02*
X11994000Y-6529000D01*
X11994000Y-8264000D02*
X12164000Y-8434000D01*
X12164000Y-8264000D02*
X11994000Y-8434000D01*
X11994000Y-10169000D02*
X12164000Y-10339000D01*
X12164000Y-10169000D02*
X11994000Y-10339000D01*
X12883000Y-4454000D02*
X13053000Y-4624000D01*
X13053000Y-4454000D02*
X12883000Y-4624000D01*
X12883000Y-6359000D02*
X13053000Y-6529000D01*
X13053000Y-6359000D02*
X12883000Y-6529000D01*
X12883000Y-8264000D02*
X13053000Y-8434000D01*
X13053000Y-8264000D02*
X12883000Y-8434000D01*
X12883000Y-10169000D02*
X13053000Y-10339000D01*
X13053000Y-10169000D02*
X12883000Y-10339000D01*
X13899000Y-4454000D02*
X14069000Y-4624000D01*
X14069000Y-4454000D02*
X13899000Y-4624000D01*
X13899000Y-6359000D02*
X14069000Y-6529000D01*
X14069000Y-6359000D02*
X13899000Y-6529000D01*
X13899000Y-8264000D02*
X14069000Y-8434000D01*
X14069000Y-8264000D02*
X13899000Y-8434000D01*
X13899000Y-10169000D02*
X14069000Y-10339000D01*
X14069000Y-10169000D02*
X13899000Y-10339000D01*
X14311750Y-12074000D02*
X14481750Y-12244000D01*
X14481750Y-12074000D02*
X14311750Y-12244000D01*
X14788000Y-4454000D02*
X14958000Y-4624000D01*
X14958000Y-4454000D02*
X14788000Y-4624000D01*
X14788000Y-6359000D02*
X14958000Y-6529000D01*
X14958000Y-6359000D02*
X14788000Y-6529000D01*
X14788000Y-8264000D02*
X14958000Y-8434000D01*
X14958000Y-8264000D02*
X14788000Y-8434000D01*
X14788000Y-10169000D02*
X14958000Y-10339000D01*
X14958000Y-10169000D02*
X14788000Y-10339000D01*
X15327750Y-12074000D02*
X15497750Y-12244000D01*
X15497750Y-12074000D02*
X15327750Y-12244000D01*
X15804000Y-4454000D02*
X15974000Y-4624000D01*
X15974000Y-4454000D02*
X15804000Y-4624000D01*
X15804000Y-6359000D02*
X15974000Y-6529000D01*
X15974000Y-6359000D02*
X15804000Y-6529000D01*
X15804000Y-8264000D02*
X15974000Y-8434000D01*
X15974000Y-8264000D02*
X15804000Y-8434000D01*
X15804000Y-10169000D02*
X15974000Y-10339000D01*
X15974000Y-10169000D02*
X15804000Y-10339000D01*
X16216750Y-12074000D02*
X16386750Y-12244000D01*
X16386750Y-12074000D02*
X16216750Y-12244000D01*
X16693000Y-4454000D02*
X16863000Y-4624000D01*
X16863000Y-4454000D02*
X16693000Y-4624000D01*
X16693000Y-6359000D02*
X16863000Y-6529000D01*
X16863000Y-6359000D02*
X16693000Y-6529000D01*
X16693000Y-8264000D02*
X16863000Y-8434000D01*
X16863000Y-8264000D02*
X16693000Y-8434000D01*
X16693000Y-10169000D02*
X16863000Y-10339000D01*
X16863000Y-10169000D02*
X16693000Y-10339000D01*
X17232750Y-12074000D02*
X17402750Y-12244000D01*
X17402750Y-12074000D02*
X17232750Y-12244000D01*
X17709000Y-4454000D02*
X17879000Y-4624000D01*
X17879000Y-4454000D02*
X17709000Y-4624000D01*
X17709000Y-6359000D02*
X17879000Y-6529000D01*
X17879000Y-6359000D02*
X17709000Y-6529000D01*
X17709000Y-8264000D02*
X17879000Y-8434000D01*
X17879000Y-8264000D02*
X17709000Y-8434000D01*
X17709000Y-10169000D02*
X17879000Y-10339000D01*
X17879000Y-10169000D02*
X17709000Y-10339000D01*
X18121750Y-12074000D02*
X18291750Y-12244000D01*
X18291750Y-12074000D02*
X18121750Y-12244000D01*
X19137750Y-12074000D02*
X19307750Y-12244000D01*
X19307750Y-12074000D02*
X19137750Y-12244000D01*
D13*
X18847496Y-6412820D02*
G75*
G03*
X18847496Y-6412820I-85090J0D01*
G01*
X19343206Y-5917110D02*
G75*
G03*
X19343206Y-5917110I-85090J0D01*
G01*
D14*
X7761000Y-4339000D02*
X7761000Y-4739000D01*
X7561000Y-4539000D02*
X7961000Y-4539000D01*
X7761000Y-6244000D02*
X7761000Y-6644000D01*
X7561000Y-6444000D02*
X7961000Y-6444000D01*
X7761000Y-8149000D02*
X7761000Y-8549000D01*
X7561000Y-8349000D02*
X7961000Y-8349000D01*
X7761000Y-10054000D02*
X7761000Y-10454000D01*
X7561000Y-10254000D02*
X7961000Y-10254000D01*
X9666000Y-4339000D02*
X9666000Y-4739000D01*
X9466000Y-4539000D02*
X9866000Y-4539000D01*
X9666000Y-6244000D02*
X9666000Y-6644000D01*
X9466000Y-6444000D02*
X9866000Y-6444000D01*
X9666000Y-8149000D02*
X9666000Y-8549000D01*
X9466000Y-8349000D02*
X9866000Y-8349000D01*
X9666000Y-10054000D02*
X9666000Y-10454000D01*
X9466000Y-10254000D02*
X9866000Y-10254000D01*
X11571000Y-4339000D02*
X11571000Y-4739000D01*
X11371000Y-4539000D02*
X11771000Y-4539000D01*
X11571000Y-6244000D02*
X11571000Y-6644000D01*
X11371000Y-6444000D02*
X11771000Y-6444000D01*
X11571000Y-8149000D02*
X11571000Y-8549000D01*
X11371000Y-8349000D02*
X11771000Y-8349000D01*
X11571000Y-10054000D02*
X11571000Y-10454000D01*
X11371000Y-10254000D02*
X11771000Y-10254000D01*
X13476000Y-4339000D02*
X13476000Y-4739000D01*
X13276000Y-4539000D02*
X13676000Y-4539000D01*
X13476000Y-6244000D02*
X13476000Y-6644000D01*
X13276000Y-6444000D02*
X13676000Y-6444000D01*
X13476000Y-8149000D02*
X13476000Y-8549000D01*
X13276000Y-8349000D02*
X13676000Y-8349000D01*
X13476000Y-10054000D02*
X13476000Y-10454000D01*
X13276000Y-10254000D02*
X13676000Y-10254000D01*
X14904750Y-11959000D02*
X14904750Y-12359000D01*
X14704750Y-12159000D02*
X15104750Y-12159000D01*
X15381000Y-4339000D02*
X15381000Y-4739000D01*
X15181000Y-4539000D02*
X15581000Y-4539000D01*
X15381000Y-6244000D02*
X15381000Y-6644000D01*
X15181000Y-6444000D02*
X15581000Y-6444000D01*
X15381000Y-8149000D02*
X15381000Y-8549000D01*
X15181000Y-8349000D02*
X15581000Y-8349000D01*
X15381000Y-10054000D02*
X15381000Y-10454000D01*
X15181000Y-10254000D02*
X15581000Y-10254000D01*
X16809750Y-11959000D02*
X16809750Y-12359000D01*
X16609750Y-12159000D02*
X17009750Y-12159000D01*
X17286000Y-4339000D02*
X17286000Y-4739000D01*
X17086000Y-4539000D02*
X17486000Y-4539000D01*
X17286000Y-6244000D02*
X17286000Y-6644000D01*
X17086000Y-6444000D02*
X17486000Y-6444000D01*
X17286000Y-8149000D02*
X17286000Y-8549000D01*
X17086000Y-8349000D02*
X17486000Y-8349000D01*
X17286000Y-10054000D02*
X17286000Y-10454000D01*
X17086000Y-10254000D02*
X17486000Y-10254000D01*
X18714750Y-11959000D02*
X18714750Y-12359000D01*
X18514750Y-12159000D02*
X18914750Y-12159000D01*
D11*
X7042619Y-13398476D02*
X7042619Y-13198476D01*
X7042619Y-13198476D02*
X7090238Y-13198476D01*
X7090238Y-13198476D02*
X7118809Y-13208000D01*
X7118809Y-13208000D02*
X7137857Y-13227048D01*
X7137857Y-13227048D02*
X7147381Y-13246095D01*
X7147381Y-13246095D02*
X7156905Y-13284190D01*
X7156905Y-13284190D02*
X7156905Y-13312762D01*
X7156905Y-13312762D02*
X7147381Y-13350857D01*
X7147381Y-13350857D02*
X7137857Y-13369905D01*
X7137857Y-13369905D02*
X7118809Y-13388952D01*
X7118809Y-13388952D02*
X7090238Y-13398476D01*
X7090238Y-13398476D02*
X7042619Y-13398476D01*
X7242619Y-13398476D02*
X7242619Y-13265143D01*
X7242619Y-13303238D02*
X7252143Y-13284190D01*
X7252143Y-13284190D02*
X7261667Y-13274667D01*
X7261667Y-13274667D02*
X7280714Y-13265143D01*
X7280714Y-13265143D02*
X7299762Y-13265143D01*
X7366428Y-13398476D02*
X7366428Y-13265143D01*
X7366428Y-13198476D02*
X7356905Y-13208000D01*
X7356905Y-13208000D02*
X7366428Y-13217524D01*
X7366428Y-13217524D02*
X7375952Y-13208000D01*
X7375952Y-13208000D02*
X7366428Y-13198476D01*
X7366428Y-13198476D02*
X7366428Y-13217524D01*
X7490238Y-13398476D02*
X7471190Y-13388952D01*
X7471190Y-13388952D02*
X7461667Y-13369905D01*
X7461667Y-13369905D02*
X7461667Y-13198476D01*
X7595000Y-13398476D02*
X7575952Y-13388952D01*
X7575952Y-13388952D02*
X7566428Y-13369905D01*
X7566428Y-13369905D02*
X7566428Y-13198476D01*
X7791190Y-13398476D02*
X7791190Y-13198476D01*
X7791190Y-13198476D02*
X7857857Y-13341333D01*
X7857857Y-13341333D02*
X7924524Y-13198476D01*
X7924524Y-13198476D02*
X7924524Y-13398476D01*
X8105476Y-13398476D02*
X8105476Y-13293714D01*
X8105476Y-13293714D02*
X8095952Y-13274667D01*
X8095952Y-13274667D02*
X8076905Y-13265143D01*
X8076905Y-13265143D02*
X8038809Y-13265143D01*
X8038809Y-13265143D02*
X8019762Y-13274667D01*
X8105476Y-13388952D02*
X8086428Y-13398476D01*
X8086428Y-13398476D02*
X8038809Y-13398476D01*
X8038809Y-13398476D02*
X8019762Y-13388952D01*
X8019762Y-13388952D02*
X8010238Y-13369905D01*
X8010238Y-13369905D02*
X8010238Y-13350857D01*
X8010238Y-13350857D02*
X8019762Y-13331809D01*
X8019762Y-13331809D02*
X8038809Y-13322286D01*
X8038809Y-13322286D02*
X8086428Y-13322286D01*
X8086428Y-13322286D02*
X8105476Y-13312762D01*
X8200714Y-13265143D02*
X8200714Y-13465143D01*
X8200714Y-13274667D02*
X8219762Y-13265143D01*
X8219762Y-13265143D02*
X8257857Y-13265143D01*
X8257857Y-13265143D02*
X8276905Y-13274667D01*
X8276905Y-13274667D02*
X8286428Y-13284190D01*
X8286428Y-13284190D02*
X8295952Y-13303238D01*
X8295952Y-13303238D02*
X8295952Y-13360381D01*
X8295952Y-13360381D02*
X8286428Y-13379428D01*
X8286428Y-13379428D02*
X8276905Y-13388952D01*
X8276905Y-13388952D02*
X8257857Y-13398476D01*
X8257857Y-13398476D02*
X8219762Y-13398476D01*
X8219762Y-13398476D02*
X8200714Y-13388952D01*
X8381667Y-13379428D02*
X8391190Y-13388952D01*
X8391190Y-13388952D02*
X8381667Y-13398476D01*
X8381667Y-13398476D02*
X8372143Y-13388952D01*
X8372143Y-13388952D02*
X8381667Y-13379428D01*
X8381667Y-13379428D02*
X8381667Y-13398476D01*
X8381667Y-13274667D02*
X8391190Y-13284190D01*
X8391190Y-13284190D02*
X8381667Y-13293714D01*
X8381667Y-13293714D02*
X8372143Y-13284190D01*
X8372143Y-13284190D02*
X8381667Y-13274667D01*
X8381667Y-13274667D02*
X8381667Y-13293714D01*
D12*
X6625000Y-13660000D02*
X6795000Y-13830000D01*
X6795000Y-13660000D02*
X6625000Y-13830000D01*
D11*
X7147381Y-13818476D02*
X7033095Y-13818476D01*
X7090238Y-13818476D02*
X7090238Y-13618476D01*
X7090238Y-13618476D02*
X7071190Y-13647048D01*
X7071190Y-13647048D02*
X7052143Y-13666095D01*
X7052143Y-13666095D02*
X7033095Y-13675619D01*
X7233095Y-13799428D02*
X7242619Y-13808952D01*
X7242619Y-13808952D02*
X7233095Y-13818476D01*
X7233095Y-13818476D02*
X7223571Y-13808952D01*
X7223571Y-13808952D02*
X7233095Y-13799428D01*
X7233095Y-13799428D02*
X7233095Y-13818476D01*
X7309286Y-13618476D02*
X7442619Y-13618476D01*
X7442619Y-13618476D02*
X7356905Y-13818476D01*
X7556905Y-13618476D02*
X7575952Y-13618476D01*
X7575952Y-13618476D02*
X7595000Y-13628000D01*
X7595000Y-13628000D02*
X7604524Y-13637524D01*
X7604524Y-13637524D02*
X7614048Y-13656571D01*
X7614048Y-13656571D02*
X7623571Y-13694667D01*
X7623571Y-13694667D02*
X7623571Y-13742286D01*
X7623571Y-13742286D02*
X7614048Y-13780381D01*
X7614048Y-13780381D02*
X7604524Y-13799428D01*
X7604524Y-13799428D02*
X7595000Y-13808952D01*
X7595000Y-13808952D02*
X7575952Y-13818476D01*
X7575952Y-13818476D02*
X7556905Y-13818476D01*
X7556905Y-13818476D02*
X7537857Y-13808952D01*
X7537857Y-13808952D02*
X7528333Y-13799428D01*
X7528333Y-13799428D02*
X7518809Y-13780381D01*
X7518809Y-13780381D02*
X7509286Y-13742286D01*
X7509286Y-13742286D02*
X7509286Y-13694667D01*
X7509286Y-13694667D02*
X7518809Y-13656571D01*
X7518809Y-13656571D02*
X7528333Y-13637524D01*
X7528333Y-13637524D02*
X7537857Y-13628000D01*
X7537857Y-13628000D02*
X7556905Y-13618476D01*
X7747381Y-13618476D02*
X7766429Y-13618476D01*
X7766429Y-13618476D02*
X7785476Y-13628000D01*
X7785476Y-13628000D02*
X7795000Y-13637524D01*
X7795000Y-13637524D02*
X7804524Y-13656571D01*
X7804524Y-13656571D02*
X7814048Y-13694667D01*
X7814048Y-13694667D02*
X7814048Y-13742286D01*
X7814048Y-13742286D02*
X7804524Y-13780381D01*
X7804524Y-13780381D02*
X7795000Y-13799428D01*
X7795000Y-13799428D02*
X7785476Y-13808952D01*
X7785476Y-13808952D02*
X7766429Y-13818476D01*
X7766429Y-13818476D02*
X7747381Y-13818476D01*
X7747381Y-13818476D02*
X7728333Y-13808952D01*
X7728333Y-13808952D02*
X7718809Y-13799428D01*
X7718809Y-13799428D02*
X7709286Y-13780381D01*
X7709286Y-13780381D02*
X7699762Y-13742286D01*
X7699762Y-13742286D02*
X7699762Y-13694667D01*
X7699762Y-13694667D02*
X7709286Y-13656571D01*
X7709286Y-13656571D02*
X7718809Y-13637524D01*
X7718809Y-13637524D02*
X7728333Y-13628000D01*
X7728333Y-13628000D02*
X7747381Y-13618476D01*
X7899762Y-13818476D02*
X7899762Y-13685143D01*
X7899762Y-13704190D02*
X7909286Y-13694667D01*
X7909286Y-13694667D02*
X7928333Y-13685143D01*
X7928333Y-13685143D02*
X7956905Y-13685143D01*
X7956905Y-13685143D02*
X7975952Y-13694667D01*
X7975952Y-13694667D02*
X7985476Y-13713714D01*
X7985476Y-13713714D02*
X7985476Y-13818476D01*
X7985476Y-13713714D02*
X7995000Y-13694667D01*
X7995000Y-13694667D02*
X8014048Y-13685143D01*
X8014048Y-13685143D02*
X8042619Y-13685143D01*
X8042619Y-13685143D02*
X8061667Y-13694667D01*
X8061667Y-13694667D02*
X8071190Y-13713714D01*
X8071190Y-13713714D02*
X8071190Y-13818476D01*
X8166429Y-13818476D02*
X8166429Y-13685143D01*
X8166429Y-13704190D02*
X8175952Y-13694667D01*
X8175952Y-13694667D02*
X8195000Y-13685143D01*
X8195000Y-13685143D02*
X8223571Y-13685143D01*
X8223571Y-13685143D02*
X8242619Y-13694667D01*
X8242619Y-13694667D02*
X8252143Y-13713714D01*
X8252143Y-13713714D02*
X8252143Y-13818476D01*
X8252143Y-13713714D02*
X8261667Y-13694667D01*
X8261667Y-13694667D02*
X8280714Y-13685143D01*
X8280714Y-13685143D02*
X8309286Y-13685143D01*
X8309286Y-13685143D02*
X8328333Y-13694667D01*
X8328333Y-13694667D02*
X8337857Y-13713714D01*
X8337857Y-13713714D02*
X8337857Y-13818476D01*
X8695952Y-13608952D02*
X8524524Y-13866095D01*
X8920714Y-13618476D02*
X8939762Y-13618476D01*
X8939762Y-13618476D02*
X8958810Y-13628000D01*
X8958810Y-13628000D02*
X8968333Y-13637524D01*
X8968333Y-13637524D02*
X8977857Y-13656571D01*
X8977857Y-13656571D02*
X8987381Y-13694667D01*
X8987381Y-13694667D02*
X8987381Y-13742286D01*
X8987381Y-13742286D02*
X8977857Y-13780381D01*
X8977857Y-13780381D02*
X8968333Y-13799428D01*
X8968333Y-13799428D02*
X8958810Y-13808952D01*
X8958810Y-13808952D02*
X8939762Y-13818476D01*
X8939762Y-13818476D02*
X8920714Y-13818476D01*
X8920714Y-13818476D02*
X8901667Y-13808952D01*
X8901667Y-13808952D02*
X8892143Y-13799428D01*
X8892143Y-13799428D02*
X8882619Y-13780381D01*
X8882619Y-13780381D02*
X8873095Y-13742286D01*
X8873095Y-13742286D02*
X8873095Y-13694667D01*
X8873095Y-13694667D02*
X8882619Y-13656571D01*
X8882619Y-13656571D02*
X8892143Y-13637524D01*
X8892143Y-13637524D02*
X8901667Y-13628000D01*
X8901667Y-13628000D02*
X8920714Y-13618476D01*
X9073095Y-13799428D02*
X9082619Y-13808952D01*
X9082619Y-13808952D02*
X9073095Y-13818476D01*
X9073095Y-13818476D02*
X9063572Y-13808952D01*
X9063572Y-13808952D02*
X9073095Y-13799428D01*
X9073095Y-13799428D02*
X9073095Y-13818476D01*
X9206429Y-13618476D02*
X9225476Y-13618476D01*
X9225476Y-13618476D02*
X9244524Y-13628000D01*
X9244524Y-13628000D02*
X9254048Y-13637524D01*
X9254048Y-13637524D02*
X9263572Y-13656571D01*
X9263572Y-13656571D02*
X9273095Y-13694667D01*
X9273095Y-13694667D02*
X9273095Y-13742286D01*
X9273095Y-13742286D02*
X9263572Y-13780381D01*
X9263572Y-13780381D02*
X9254048Y-13799428D01*
X9254048Y-13799428D02*
X9244524Y-13808952D01*
X9244524Y-13808952D02*
X9225476Y-13818476D01*
X9225476Y-13818476D02*
X9206429Y-13818476D01*
X9206429Y-13818476D02*
X9187381Y-13808952D01*
X9187381Y-13808952D02*
X9177857Y-13799428D01*
X9177857Y-13799428D02*
X9168333Y-13780381D01*
X9168333Y-13780381D02*
X9158810Y-13742286D01*
X9158810Y-13742286D02*
X9158810Y-13694667D01*
X9158810Y-13694667D02*
X9168333Y-13656571D01*
X9168333Y-13656571D02*
X9177857Y-13637524D01*
X9177857Y-13637524D02*
X9187381Y-13628000D01*
X9187381Y-13628000D02*
X9206429Y-13618476D01*
X9444524Y-13618476D02*
X9406429Y-13618476D01*
X9406429Y-13618476D02*
X9387381Y-13628000D01*
X9387381Y-13628000D02*
X9377857Y-13637524D01*
X9377857Y-13637524D02*
X9358810Y-13666095D01*
X9358810Y-13666095D02*
X9349286Y-13704190D01*
X9349286Y-13704190D02*
X9349286Y-13780381D01*
X9349286Y-13780381D02*
X9358810Y-13799428D01*
X9358810Y-13799428D02*
X9368333Y-13808952D01*
X9368333Y-13808952D02*
X9387381Y-13818476D01*
X9387381Y-13818476D02*
X9425476Y-13818476D01*
X9425476Y-13818476D02*
X9444524Y-13808952D01*
X9444524Y-13808952D02*
X9454048Y-13799428D01*
X9454048Y-13799428D02*
X9463572Y-13780381D01*
X9463572Y-13780381D02*
X9463572Y-13732762D01*
X9463572Y-13732762D02*
X9454048Y-13713714D01*
X9454048Y-13713714D02*
X9444524Y-13704190D01*
X9444524Y-13704190D02*
X9425476Y-13694667D01*
X9425476Y-13694667D02*
X9387381Y-13694667D01*
X9387381Y-13694667D02*
X9368333Y-13704190D01*
X9368333Y-13704190D02*
X9358810Y-13713714D01*
X9358810Y-13713714D02*
X9349286Y-13732762D01*
X9635000Y-13618476D02*
X9596905Y-13618476D01*
X9596905Y-13618476D02*
X9577857Y-13628000D01*
X9577857Y-13628000D02*
X9568333Y-13637524D01*
X9568333Y-13637524D02*
X9549286Y-13666095D01*
X9549286Y-13666095D02*
X9539762Y-13704190D01*
X9539762Y-13704190D02*
X9539762Y-13780381D01*
X9539762Y-13780381D02*
X9549286Y-13799428D01*
X9549286Y-13799428D02*
X9558810Y-13808952D01*
X9558810Y-13808952D02*
X9577857Y-13818476D01*
X9577857Y-13818476D02*
X9615953Y-13818476D01*
X9615953Y-13818476D02*
X9635000Y-13808952D01*
X9635000Y-13808952D02*
X9644524Y-13799428D01*
X9644524Y-13799428D02*
X9654048Y-13780381D01*
X9654048Y-13780381D02*
X9654048Y-13732762D01*
X9654048Y-13732762D02*
X9644524Y-13713714D01*
X9644524Y-13713714D02*
X9635000Y-13704190D01*
X9635000Y-13704190D02*
X9615953Y-13694667D01*
X9615953Y-13694667D02*
X9577857Y-13694667D01*
X9577857Y-13694667D02*
X9558810Y-13704190D01*
X9558810Y-13704190D02*
X9549286Y-13713714D01*
X9549286Y-13713714D02*
X9539762Y-13732762D01*
X9749286Y-13818476D02*
X9787381Y-13818476D01*
X9787381Y-13818476D02*
X9806429Y-13808952D01*
X9806429Y-13808952D02*
X9815953Y-13799428D01*
X9815953Y-13799428D02*
X9835000Y-13770857D01*
X9835000Y-13770857D02*
X9844524Y-13732762D01*
X9844524Y-13732762D02*
X9844524Y-13656571D01*
X9844524Y-13656571D02*
X9835000Y-13637524D01*
X9835000Y-13637524D02*
X9825476Y-13628000D01*
X9825476Y-13628000D02*
X9806429Y-13618476D01*
X9806429Y-13618476D02*
X9768333Y-13618476D01*
X9768333Y-13618476D02*
X9749286Y-13628000D01*
X9749286Y-13628000D02*
X9739762Y-13637524D01*
X9739762Y-13637524D02*
X9730238Y-13656571D01*
X9730238Y-13656571D02*
X9730238Y-13704190D01*
X9730238Y-13704190D02*
X9739762Y-13723238D01*
X9739762Y-13723238D02*
X9749286Y-13732762D01*
X9749286Y-13732762D02*
X9768333Y-13742286D01*
X9768333Y-13742286D02*
X9806429Y-13742286D01*
X9806429Y-13742286D02*
X9825476Y-13732762D01*
X9825476Y-13732762D02*
X9835000Y-13723238D01*
X9835000Y-13723238D02*
X9844524Y-13704190D01*
X9920714Y-13618476D02*
X9920714Y-13656571D01*
X9996905Y-13618476D02*
X9996905Y-13656571D01*
X10259762Y-13894667D02*
X10250238Y-13885143D01*
X10250238Y-13885143D02*
X10231191Y-13856571D01*
X10231191Y-13856571D02*
X10221667Y-13837524D01*
X10221667Y-13837524D02*
X10212143Y-13808952D01*
X10212143Y-13808952D02*
X10202619Y-13761333D01*
X10202619Y-13761333D02*
X10202619Y-13723238D01*
X10202619Y-13723238D02*
X10212143Y-13675619D01*
X10212143Y-13675619D02*
X10221667Y-13647048D01*
X10221667Y-13647048D02*
X10231191Y-13628000D01*
X10231191Y-13628000D02*
X10250238Y-13599428D01*
X10250238Y-13599428D02*
X10259762Y-13589905D01*
X10431191Y-13618476D02*
X10335953Y-13618476D01*
X10335953Y-13618476D02*
X10326429Y-13713714D01*
X10326429Y-13713714D02*
X10335953Y-13704190D01*
X10335953Y-13704190D02*
X10355000Y-13694667D01*
X10355000Y-13694667D02*
X10402619Y-13694667D01*
X10402619Y-13694667D02*
X10421667Y-13704190D01*
X10421667Y-13704190D02*
X10431191Y-13713714D01*
X10431191Y-13713714D02*
X10440714Y-13732762D01*
X10440714Y-13732762D02*
X10440714Y-13780381D01*
X10440714Y-13780381D02*
X10431191Y-13799428D01*
X10431191Y-13799428D02*
X10421667Y-13808952D01*
X10421667Y-13808952D02*
X10402619Y-13818476D01*
X10402619Y-13818476D02*
X10355000Y-13818476D01*
X10355000Y-13818476D02*
X10335953Y-13808952D01*
X10335953Y-13808952D02*
X10326429Y-13799428D01*
X10612143Y-13685143D02*
X10612143Y-13818476D01*
X10564524Y-13608952D02*
X10516905Y-13751809D01*
X10516905Y-13751809D02*
X10640714Y-13751809D01*
X10836905Y-13818476D02*
X10836905Y-13618476D01*
X10922619Y-13818476D02*
X10922619Y-13713714D01*
X10922619Y-13713714D02*
X10913095Y-13694667D01*
X10913095Y-13694667D02*
X10894048Y-13685143D01*
X10894048Y-13685143D02*
X10865476Y-13685143D01*
X10865476Y-13685143D02*
X10846429Y-13694667D01*
X10846429Y-13694667D02*
X10836905Y-13704190D01*
X11046429Y-13818476D02*
X11027381Y-13808952D01*
X11027381Y-13808952D02*
X11017857Y-13799428D01*
X11017857Y-13799428D02*
X11008334Y-13780381D01*
X11008334Y-13780381D02*
X11008334Y-13723238D01*
X11008334Y-13723238D02*
X11017857Y-13704190D01*
X11017857Y-13704190D02*
X11027381Y-13694667D01*
X11027381Y-13694667D02*
X11046429Y-13685143D01*
X11046429Y-13685143D02*
X11075000Y-13685143D01*
X11075000Y-13685143D02*
X11094048Y-13694667D01*
X11094048Y-13694667D02*
X11103572Y-13704190D01*
X11103572Y-13704190D02*
X11113095Y-13723238D01*
X11113095Y-13723238D02*
X11113095Y-13780381D01*
X11113095Y-13780381D02*
X11103572Y-13799428D01*
X11103572Y-13799428D02*
X11094048Y-13808952D01*
X11094048Y-13808952D02*
X11075000Y-13818476D01*
X11075000Y-13818476D02*
X11046429Y-13818476D01*
X11227381Y-13818476D02*
X11208333Y-13808952D01*
X11208333Y-13808952D02*
X11198810Y-13789905D01*
X11198810Y-13789905D02*
X11198810Y-13618476D01*
X11379762Y-13808952D02*
X11360714Y-13818476D01*
X11360714Y-13818476D02*
X11322619Y-13818476D01*
X11322619Y-13818476D02*
X11303572Y-13808952D01*
X11303572Y-13808952D02*
X11294048Y-13789905D01*
X11294048Y-13789905D02*
X11294048Y-13713714D01*
X11294048Y-13713714D02*
X11303572Y-13694667D01*
X11303572Y-13694667D02*
X11322619Y-13685143D01*
X11322619Y-13685143D02*
X11360714Y-13685143D01*
X11360714Y-13685143D02*
X11379762Y-13694667D01*
X11379762Y-13694667D02*
X11389286Y-13713714D01*
X11389286Y-13713714D02*
X11389286Y-13732762D01*
X11389286Y-13732762D02*
X11294048Y-13751809D01*
X11465476Y-13808952D02*
X11484524Y-13818476D01*
X11484524Y-13818476D02*
X11522619Y-13818476D01*
X11522619Y-13818476D02*
X11541667Y-13808952D01*
X11541667Y-13808952D02*
X11551191Y-13789905D01*
X11551191Y-13789905D02*
X11551191Y-13780381D01*
X11551191Y-13780381D02*
X11541667Y-13761333D01*
X11541667Y-13761333D02*
X11522619Y-13751809D01*
X11522619Y-13751809D02*
X11494048Y-13751809D01*
X11494048Y-13751809D02*
X11475000Y-13742286D01*
X11475000Y-13742286D02*
X11465476Y-13723238D01*
X11465476Y-13723238D02*
X11465476Y-13713714D01*
X11465476Y-13713714D02*
X11475000Y-13694667D01*
X11475000Y-13694667D02*
X11494048Y-13685143D01*
X11494048Y-13685143D02*
X11522619Y-13685143D01*
X11522619Y-13685143D02*
X11541667Y-13694667D01*
X11617857Y-13894667D02*
X11627381Y-13885143D01*
X11627381Y-13885143D02*
X11646429Y-13856571D01*
X11646429Y-13856571D02*
X11655953Y-13837524D01*
X11655953Y-13837524D02*
X11665476Y-13808952D01*
X11665476Y-13808952D02*
X11675000Y-13761333D01*
X11675000Y-13761333D02*
X11675000Y-13723238D01*
X11675000Y-13723238D02*
X11665476Y-13675619D01*
X11665476Y-13675619D02*
X11655953Y-13647048D01*
X11655953Y-13647048D02*
X11646429Y-13628000D01*
X11646429Y-13628000D02*
X11627381Y-13599428D01*
X11627381Y-13599428D02*
X11617857Y-13589905D01*
X11947381Y-13894667D02*
X11937857Y-13885143D01*
X11937857Y-13885143D02*
X11918810Y-13856571D01*
X11918810Y-13856571D02*
X11909286Y-13837524D01*
X11909286Y-13837524D02*
X11899762Y-13808952D01*
X11899762Y-13808952D02*
X11890238Y-13761333D01*
X11890238Y-13761333D02*
X11890238Y-13723238D01*
X11890238Y-13723238D02*
X11899762Y-13675619D01*
X11899762Y-13675619D02*
X11909286Y-13647048D01*
X11909286Y-13647048D02*
X11918810Y-13628000D01*
X11918810Y-13628000D02*
X11937857Y-13599428D01*
X11937857Y-13599428D02*
X11947381Y-13589905D01*
X12023572Y-13685143D02*
X12023572Y-13818476D01*
X12023572Y-13704190D02*
X12033095Y-13694667D01*
X12033095Y-13694667D02*
X12052143Y-13685143D01*
X12052143Y-13685143D02*
X12080714Y-13685143D01*
X12080714Y-13685143D02*
X12099762Y-13694667D01*
X12099762Y-13694667D02*
X12109286Y-13713714D01*
X12109286Y-13713714D02*
X12109286Y-13818476D01*
X12233095Y-13818476D02*
X12214048Y-13808952D01*
X12214048Y-13808952D02*
X12204524Y-13799428D01*
X12204524Y-13799428D02*
X12195000Y-13780381D01*
X12195000Y-13780381D02*
X12195000Y-13723238D01*
X12195000Y-13723238D02*
X12204524Y-13704190D01*
X12204524Y-13704190D02*
X12214048Y-13694667D01*
X12214048Y-13694667D02*
X12233095Y-13685143D01*
X12233095Y-13685143D02*
X12261667Y-13685143D01*
X12261667Y-13685143D02*
X12280714Y-13694667D01*
X12280714Y-13694667D02*
X12290238Y-13704190D01*
X12290238Y-13704190D02*
X12299762Y-13723238D01*
X12299762Y-13723238D02*
X12299762Y-13780381D01*
X12299762Y-13780381D02*
X12290238Y-13799428D01*
X12290238Y-13799428D02*
X12280714Y-13808952D01*
X12280714Y-13808952D02*
X12261667Y-13818476D01*
X12261667Y-13818476D02*
X12233095Y-13818476D01*
X12356905Y-13685143D02*
X12433095Y-13685143D01*
X12385476Y-13618476D02*
X12385476Y-13789905D01*
X12385476Y-13789905D02*
X12395000Y-13808952D01*
X12395000Y-13808952D02*
X12414048Y-13818476D01*
X12414048Y-13818476D02*
X12433095Y-13818476D01*
X12619762Y-13685143D02*
X12619762Y-13885143D01*
X12619762Y-13694667D02*
X12638810Y-13685143D01*
X12638810Y-13685143D02*
X12676905Y-13685143D01*
X12676905Y-13685143D02*
X12695953Y-13694667D01*
X12695953Y-13694667D02*
X12705476Y-13704190D01*
X12705476Y-13704190D02*
X12715000Y-13723238D01*
X12715000Y-13723238D02*
X12715000Y-13780381D01*
X12715000Y-13780381D02*
X12705476Y-13799428D01*
X12705476Y-13799428D02*
X12695953Y-13808952D01*
X12695953Y-13808952D02*
X12676905Y-13818476D01*
X12676905Y-13818476D02*
X12638810Y-13818476D01*
X12638810Y-13818476D02*
X12619762Y-13808952D01*
X12829286Y-13818476D02*
X12810238Y-13808952D01*
X12810238Y-13808952D02*
X12800714Y-13789905D01*
X12800714Y-13789905D02*
X12800714Y-13618476D01*
X12991191Y-13818476D02*
X12991191Y-13713714D01*
X12991191Y-13713714D02*
X12981667Y-13694667D01*
X12981667Y-13694667D02*
X12962619Y-13685143D01*
X12962619Y-13685143D02*
X12924524Y-13685143D01*
X12924524Y-13685143D02*
X12905476Y-13694667D01*
X12991191Y-13808952D02*
X12972143Y-13818476D01*
X12972143Y-13818476D02*
X12924524Y-13818476D01*
X12924524Y-13818476D02*
X12905476Y-13808952D01*
X12905476Y-13808952D02*
X12895953Y-13789905D01*
X12895953Y-13789905D02*
X12895953Y-13770857D01*
X12895953Y-13770857D02*
X12905476Y-13751809D01*
X12905476Y-13751809D02*
X12924524Y-13742286D01*
X12924524Y-13742286D02*
X12972143Y-13742286D01*
X12972143Y-13742286D02*
X12991191Y-13732762D01*
X13057857Y-13685143D02*
X13134048Y-13685143D01*
X13086429Y-13618476D02*
X13086429Y-13789905D01*
X13086429Y-13789905D02*
X13095953Y-13808952D01*
X13095953Y-13808952D02*
X13115000Y-13818476D01*
X13115000Y-13818476D02*
X13134048Y-13818476D01*
X13276905Y-13808952D02*
X13257857Y-13818476D01*
X13257857Y-13818476D02*
X13219762Y-13818476D01*
X13219762Y-13818476D02*
X13200714Y-13808952D01*
X13200714Y-13808952D02*
X13191191Y-13789905D01*
X13191191Y-13789905D02*
X13191191Y-13713714D01*
X13191191Y-13713714D02*
X13200714Y-13694667D01*
X13200714Y-13694667D02*
X13219762Y-13685143D01*
X13219762Y-13685143D02*
X13257857Y-13685143D01*
X13257857Y-13685143D02*
X13276905Y-13694667D01*
X13276905Y-13694667D02*
X13286429Y-13713714D01*
X13286429Y-13713714D02*
X13286429Y-13732762D01*
X13286429Y-13732762D02*
X13191191Y-13751809D01*
X13457857Y-13818476D02*
X13457857Y-13618476D01*
X13457857Y-13808952D02*
X13438810Y-13818476D01*
X13438810Y-13818476D02*
X13400714Y-13818476D01*
X13400714Y-13818476D02*
X13381667Y-13808952D01*
X13381667Y-13808952D02*
X13372143Y-13799428D01*
X13372143Y-13799428D02*
X13362619Y-13780381D01*
X13362619Y-13780381D02*
X13362619Y-13723238D01*
X13362619Y-13723238D02*
X13372143Y-13704190D01*
X13372143Y-13704190D02*
X13381667Y-13694667D01*
X13381667Y-13694667D02*
X13400714Y-13685143D01*
X13400714Y-13685143D02*
X13438810Y-13685143D01*
X13438810Y-13685143D02*
X13457857Y-13694667D01*
X13534048Y-13894667D02*
X13543572Y-13885143D01*
X13543572Y-13885143D02*
X13562619Y-13856571D01*
X13562619Y-13856571D02*
X13572143Y-13837524D01*
X13572143Y-13837524D02*
X13581667Y-13808952D01*
X13581667Y-13808952D02*
X13591191Y-13761333D01*
X13591191Y-13761333D02*
X13591191Y-13723238D01*
X13591191Y-13723238D02*
X13581667Y-13675619D01*
X13581667Y-13675619D02*
X13572143Y-13647048D01*
X13572143Y-13647048D02*
X13562619Y-13628000D01*
X13562619Y-13628000D02*
X13543572Y-13599428D01*
X13543572Y-13599428D02*
X13534048Y-13589905D01*
D13*
X6795000Y-14035000D02*
G75*
G03*
X6795000Y-14035000I-85090J0D01*
G01*
D11*
X7147381Y-14108476D02*
X7033095Y-14108476D01*
X7090238Y-14108476D02*
X7090238Y-13908476D01*
X7090238Y-13908476D02*
X7071190Y-13937048D01*
X7071190Y-13937048D02*
X7052143Y-13956095D01*
X7052143Y-13956095D02*
X7033095Y-13965619D01*
X7233095Y-14089428D02*
X7242619Y-14098952D01*
X7242619Y-14098952D02*
X7233095Y-14108476D01*
X7233095Y-14108476D02*
X7223571Y-14098952D01*
X7223571Y-14098952D02*
X7233095Y-14089428D01*
X7233095Y-14089428D02*
X7233095Y-14108476D01*
X7309286Y-13908476D02*
X7442619Y-13908476D01*
X7442619Y-13908476D02*
X7356905Y-14108476D01*
X7556905Y-13908476D02*
X7575952Y-13908476D01*
X7575952Y-13908476D02*
X7595000Y-13918000D01*
X7595000Y-13918000D02*
X7604524Y-13927524D01*
X7604524Y-13927524D02*
X7614048Y-13946571D01*
X7614048Y-13946571D02*
X7623571Y-13984667D01*
X7623571Y-13984667D02*
X7623571Y-14032286D01*
X7623571Y-14032286D02*
X7614048Y-14070381D01*
X7614048Y-14070381D02*
X7604524Y-14089428D01*
X7604524Y-14089428D02*
X7595000Y-14098952D01*
X7595000Y-14098952D02*
X7575952Y-14108476D01*
X7575952Y-14108476D02*
X7556905Y-14108476D01*
X7556905Y-14108476D02*
X7537857Y-14098952D01*
X7537857Y-14098952D02*
X7528333Y-14089428D01*
X7528333Y-14089428D02*
X7518809Y-14070381D01*
X7518809Y-14070381D02*
X7509286Y-14032286D01*
X7509286Y-14032286D02*
X7509286Y-13984667D01*
X7509286Y-13984667D02*
X7518809Y-13946571D01*
X7518809Y-13946571D02*
X7528333Y-13927524D01*
X7528333Y-13927524D02*
X7537857Y-13918000D01*
X7537857Y-13918000D02*
X7556905Y-13908476D01*
X7699762Y-13927524D02*
X7709286Y-13918000D01*
X7709286Y-13918000D02*
X7728333Y-13908476D01*
X7728333Y-13908476D02*
X7775952Y-13908476D01*
X7775952Y-13908476D02*
X7795000Y-13918000D01*
X7795000Y-13918000D02*
X7804524Y-13927524D01*
X7804524Y-13927524D02*
X7814048Y-13946571D01*
X7814048Y-13946571D02*
X7814048Y-13965619D01*
X7814048Y-13965619D02*
X7804524Y-13994190D01*
X7804524Y-13994190D02*
X7690238Y-14108476D01*
X7690238Y-14108476D02*
X7814048Y-14108476D01*
X7899762Y-14108476D02*
X7899762Y-13975143D01*
X7899762Y-13994190D02*
X7909286Y-13984667D01*
X7909286Y-13984667D02*
X7928333Y-13975143D01*
X7928333Y-13975143D02*
X7956905Y-13975143D01*
X7956905Y-13975143D02*
X7975952Y-13984667D01*
X7975952Y-13984667D02*
X7985476Y-14003714D01*
X7985476Y-14003714D02*
X7985476Y-14108476D01*
X7985476Y-14003714D02*
X7995000Y-13984667D01*
X7995000Y-13984667D02*
X8014048Y-13975143D01*
X8014048Y-13975143D02*
X8042619Y-13975143D01*
X8042619Y-13975143D02*
X8061667Y-13984667D01*
X8061667Y-13984667D02*
X8071190Y-14003714D01*
X8071190Y-14003714D02*
X8071190Y-14108476D01*
X8166429Y-14108476D02*
X8166429Y-13975143D01*
X8166429Y-13994190D02*
X8175952Y-13984667D01*
X8175952Y-13984667D02*
X8195000Y-13975143D01*
X8195000Y-13975143D02*
X8223571Y-13975143D01*
X8223571Y-13975143D02*
X8242619Y-13984667D01*
X8242619Y-13984667D02*
X8252143Y-14003714D01*
X8252143Y-14003714D02*
X8252143Y-14108476D01*
X8252143Y-14003714D02*
X8261667Y-13984667D01*
X8261667Y-13984667D02*
X8280714Y-13975143D01*
X8280714Y-13975143D02*
X8309286Y-13975143D01*
X8309286Y-13975143D02*
X8328333Y-13984667D01*
X8328333Y-13984667D02*
X8337857Y-14003714D01*
X8337857Y-14003714D02*
X8337857Y-14108476D01*
X8695952Y-13898952D02*
X8524524Y-14156095D01*
X8920714Y-13908476D02*
X8939762Y-13908476D01*
X8939762Y-13908476D02*
X8958810Y-13918000D01*
X8958810Y-13918000D02*
X8968333Y-13927524D01*
X8968333Y-13927524D02*
X8977857Y-13946571D01*
X8977857Y-13946571D02*
X8987381Y-13984667D01*
X8987381Y-13984667D02*
X8987381Y-14032286D01*
X8987381Y-14032286D02*
X8977857Y-14070381D01*
X8977857Y-14070381D02*
X8968333Y-14089428D01*
X8968333Y-14089428D02*
X8958810Y-14098952D01*
X8958810Y-14098952D02*
X8939762Y-14108476D01*
X8939762Y-14108476D02*
X8920714Y-14108476D01*
X8920714Y-14108476D02*
X8901667Y-14098952D01*
X8901667Y-14098952D02*
X8892143Y-14089428D01*
X8892143Y-14089428D02*
X8882619Y-14070381D01*
X8882619Y-14070381D02*
X8873095Y-14032286D01*
X8873095Y-14032286D02*
X8873095Y-13984667D01*
X8873095Y-13984667D02*
X8882619Y-13946571D01*
X8882619Y-13946571D02*
X8892143Y-13927524D01*
X8892143Y-13927524D02*
X8901667Y-13918000D01*
X8901667Y-13918000D02*
X8920714Y-13908476D01*
X9073095Y-14089428D02*
X9082619Y-14098952D01*
X9082619Y-14098952D02*
X9073095Y-14108476D01*
X9073095Y-14108476D02*
X9063572Y-14098952D01*
X9063572Y-14098952D02*
X9073095Y-14089428D01*
X9073095Y-14089428D02*
X9073095Y-14108476D01*
X9206429Y-13908476D02*
X9225476Y-13908476D01*
X9225476Y-13908476D02*
X9244524Y-13918000D01*
X9244524Y-13918000D02*
X9254048Y-13927524D01*
X9254048Y-13927524D02*
X9263572Y-13946571D01*
X9263572Y-13946571D02*
X9273095Y-13984667D01*
X9273095Y-13984667D02*
X9273095Y-14032286D01*
X9273095Y-14032286D02*
X9263572Y-14070381D01*
X9263572Y-14070381D02*
X9254048Y-14089428D01*
X9254048Y-14089428D02*
X9244524Y-14098952D01*
X9244524Y-14098952D02*
X9225476Y-14108476D01*
X9225476Y-14108476D02*
X9206429Y-14108476D01*
X9206429Y-14108476D02*
X9187381Y-14098952D01*
X9187381Y-14098952D02*
X9177857Y-14089428D01*
X9177857Y-14089428D02*
X9168333Y-14070381D01*
X9168333Y-14070381D02*
X9158810Y-14032286D01*
X9158810Y-14032286D02*
X9158810Y-13984667D01*
X9158810Y-13984667D02*
X9168333Y-13946571D01*
X9168333Y-13946571D02*
X9177857Y-13927524D01*
X9177857Y-13927524D02*
X9187381Y-13918000D01*
X9187381Y-13918000D02*
X9206429Y-13908476D01*
X9444524Y-13908476D02*
X9406429Y-13908476D01*
X9406429Y-13908476D02*
X9387381Y-13918000D01*
X9387381Y-13918000D02*
X9377857Y-13927524D01*
X9377857Y-13927524D02*
X9358810Y-13956095D01*
X9358810Y-13956095D02*
X9349286Y-13994190D01*
X9349286Y-13994190D02*
X9349286Y-14070381D01*
X9349286Y-14070381D02*
X9358810Y-14089428D01*
X9358810Y-14089428D02*
X9368333Y-14098952D01*
X9368333Y-14098952D02*
X9387381Y-14108476D01*
X9387381Y-14108476D02*
X9425476Y-14108476D01*
X9425476Y-14108476D02*
X9444524Y-14098952D01*
X9444524Y-14098952D02*
X9454048Y-14089428D01*
X9454048Y-14089428D02*
X9463572Y-14070381D01*
X9463572Y-14070381D02*
X9463572Y-14022762D01*
X9463572Y-14022762D02*
X9454048Y-14003714D01*
X9454048Y-14003714D02*
X9444524Y-13994190D01*
X9444524Y-13994190D02*
X9425476Y-13984667D01*
X9425476Y-13984667D02*
X9387381Y-13984667D01*
X9387381Y-13984667D02*
X9368333Y-13994190D01*
X9368333Y-13994190D02*
X9358810Y-14003714D01*
X9358810Y-14003714D02*
X9349286Y-14022762D01*
X9530238Y-13908476D02*
X9663572Y-13908476D01*
X9663572Y-13908476D02*
X9577857Y-14108476D01*
X9777857Y-13908476D02*
X9796905Y-13908476D01*
X9796905Y-13908476D02*
X9815953Y-13918000D01*
X9815953Y-13918000D02*
X9825476Y-13927524D01*
X9825476Y-13927524D02*
X9835000Y-13946571D01*
X9835000Y-13946571D02*
X9844524Y-13984667D01*
X9844524Y-13984667D02*
X9844524Y-14032286D01*
X9844524Y-14032286D02*
X9835000Y-14070381D01*
X9835000Y-14070381D02*
X9825476Y-14089428D01*
X9825476Y-14089428D02*
X9815953Y-14098952D01*
X9815953Y-14098952D02*
X9796905Y-14108476D01*
X9796905Y-14108476D02*
X9777857Y-14108476D01*
X9777857Y-14108476D02*
X9758810Y-14098952D01*
X9758810Y-14098952D02*
X9749286Y-14089428D01*
X9749286Y-14089428D02*
X9739762Y-14070381D01*
X9739762Y-14070381D02*
X9730238Y-14032286D01*
X9730238Y-14032286D02*
X9730238Y-13984667D01*
X9730238Y-13984667D02*
X9739762Y-13946571D01*
X9739762Y-13946571D02*
X9749286Y-13927524D01*
X9749286Y-13927524D02*
X9758810Y-13918000D01*
X9758810Y-13918000D02*
X9777857Y-13908476D01*
X9920714Y-13908476D02*
X9920714Y-13946571D01*
X9996905Y-13908476D02*
X9996905Y-13946571D01*
X10259762Y-14184667D02*
X10250238Y-14175143D01*
X10250238Y-14175143D02*
X10231191Y-14146571D01*
X10231191Y-14146571D02*
X10221667Y-14127524D01*
X10221667Y-14127524D02*
X10212143Y-14098952D01*
X10212143Y-14098952D02*
X10202619Y-14051333D01*
X10202619Y-14051333D02*
X10202619Y-14013238D01*
X10202619Y-14013238D02*
X10212143Y-13965619D01*
X10212143Y-13965619D02*
X10221667Y-13937048D01*
X10221667Y-13937048D02*
X10231191Y-13918000D01*
X10231191Y-13918000D02*
X10250238Y-13889428D01*
X10250238Y-13889428D02*
X10259762Y-13879905D01*
X10326429Y-13927524D02*
X10335953Y-13918000D01*
X10335953Y-13918000D02*
X10355000Y-13908476D01*
X10355000Y-13908476D02*
X10402619Y-13908476D01*
X10402619Y-13908476D02*
X10421667Y-13918000D01*
X10421667Y-13918000D02*
X10431191Y-13927524D01*
X10431191Y-13927524D02*
X10440714Y-13946571D01*
X10440714Y-13946571D02*
X10440714Y-13965619D01*
X10440714Y-13965619D02*
X10431191Y-13994190D01*
X10431191Y-13994190D02*
X10316905Y-14108476D01*
X10316905Y-14108476D02*
X10440714Y-14108476D01*
X10646429Y-14108476D02*
X10646429Y-13908476D01*
X10732143Y-14108476D02*
X10732143Y-14003714D01*
X10732143Y-14003714D02*
X10722619Y-13984667D01*
X10722619Y-13984667D02*
X10703572Y-13975143D01*
X10703572Y-13975143D02*
X10675000Y-13975143D01*
X10675000Y-13975143D02*
X10655953Y-13984667D01*
X10655953Y-13984667D02*
X10646429Y-13994190D01*
X10855953Y-14108476D02*
X10836905Y-14098952D01*
X10836905Y-14098952D02*
X10827381Y-14089428D01*
X10827381Y-14089428D02*
X10817857Y-14070381D01*
X10817857Y-14070381D02*
X10817857Y-14013238D01*
X10817857Y-14013238D02*
X10827381Y-13994190D01*
X10827381Y-13994190D02*
X10836905Y-13984667D01*
X10836905Y-13984667D02*
X10855953Y-13975143D01*
X10855953Y-13975143D02*
X10884524Y-13975143D01*
X10884524Y-13975143D02*
X10903572Y-13984667D01*
X10903572Y-13984667D02*
X10913095Y-13994190D01*
X10913095Y-13994190D02*
X10922619Y-14013238D01*
X10922619Y-14013238D02*
X10922619Y-14070381D01*
X10922619Y-14070381D02*
X10913095Y-14089428D01*
X10913095Y-14089428D02*
X10903572Y-14098952D01*
X10903572Y-14098952D02*
X10884524Y-14108476D01*
X10884524Y-14108476D02*
X10855953Y-14108476D01*
X11036905Y-14108476D02*
X11017857Y-14098952D01*
X11017857Y-14098952D02*
X11008334Y-14079905D01*
X11008334Y-14079905D02*
X11008334Y-13908476D01*
X11189286Y-14098952D02*
X11170238Y-14108476D01*
X11170238Y-14108476D02*
X11132143Y-14108476D01*
X11132143Y-14108476D02*
X11113095Y-14098952D01*
X11113095Y-14098952D02*
X11103572Y-14079905D01*
X11103572Y-14079905D02*
X11103572Y-14003714D01*
X11103572Y-14003714D02*
X11113095Y-13984667D01*
X11113095Y-13984667D02*
X11132143Y-13975143D01*
X11132143Y-13975143D02*
X11170238Y-13975143D01*
X11170238Y-13975143D02*
X11189286Y-13984667D01*
X11189286Y-13984667D02*
X11198810Y-14003714D01*
X11198810Y-14003714D02*
X11198810Y-14022762D01*
X11198810Y-14022762D02*
X11103572Y-14041809D01*
X11275000Y-14098952D02*
X11294048Y-14108476D01*
X11294048Y-14108476D02*
X11332143Y-14108476D01*
X11332143Y-14108476D02*
X11351191Y-14098952D01*
X11351191Y-14098952D02*
X11360714Y-14079905D01*
X11360714Y-14079905D02*
X11360714Y-14070381D01*
X11360714Y-14070381D02*
X11351191Y-14051333D01*
X11351191Y-14051333D02*
X11332143Y-14041809D01*
X11332143Y-14041809D02*
X11303572Y-14041809D01*
X11303572Y-14041809D02*
X11284524Y-14032286D01*
X11284524Y-14032286D02*
X11275000Y-14013238D01*
X11275000Y-14013238D02*
X11275000Y-14003714D01*
X11275000Y-14003714D02*
X11284524Y-13984667D01*
X11284524Y-13984667D02*
X11303572Y-13975143D01*
X11303572Y-13975143D02*
X11332143Y-13975143D01*
X11332143Y-13975143D02*
X11351191Y-13984667D01*
X11427381Y-14184667D02*
X11436905Y-14175143D01*
X11436905Y-14175143D02*
X11455953Y-14146571D01*
X11455953Y-14146571D02*
X11465476Y-14127524D01*
X11465476Y-14127524D02*
X11475000Y-14098952D01*
X11475000Y-14098952D02*
X11484524Y-14051333D01*
X11484524Y-14051333D02*
X11484524Y-14013238D01*
X11484524Y-14013238D02*
X11475000Y-13965619D01*
X11475000Y-13965619D02*
X11465476Y-13937048D01*
X11465476Y-13937048D02*
X11455953Y-13918000D01*
X11455953Y-13918000D02*
X11436905Y-13889428D01*
X11436905Y-13889428D02*
X11427381Y-13879905D01*
X11756905Y-14184667D02*
X11747381Y-14175143D01*
X11747381Y-14175143D02*
X11728333Y-14146571D01*
X11728333Y-14146571D02*
X11718810Y-14127524D01*
X11718810Y-14127524D02*
X11709286Y-14098952D01*
X11709286Y-14098952D02*
X11699762Y-14051333D01*
X11699762Y-14051333D02*
X11699762Y-14013238D01*
X11699762Y-14013238D02*
X11709286Y-13965619D01*
X11709286Y-13965619D02*
X11718810Y-13937048D01*
X11718810Y-13937048D02*
X11728333Y-13918000D01*
X11728333Y-13918000D02*
X11747381Y-13889428D01*
X11747381Y-13889428D02*
X11756905Y-13879905D01*
X11833095Y-13975143D02*
X11833095Y-14108476D01*
X11833095Y-13994190D02*
X11842619Y-13984667D01*
X11842619Y-13984667D02*
X11861667Y-13975143D01*
X11861667Y-13975143D02*
X11890238Y-13975143D01*
X11890238Y-13975143D02*
X11909286Y-13984667D01*
X11909286Y-13984667D02*
X11918810Y-14003714D01*
X11918810Y-14003714D02*
X11918810Y-14108476D01*
X12042619Y-14108476D02*
X12023572Y-14098952D01*
X12023572Y-14098952D02*
X12014048Y-14089428D01*
X12014048Y-14089428D02*
X12004524Y-14070381D01*
X12004524Y-14070381D02*
X12004524Y-14013238D01*
X12004524Y-14013238D02*
X12014048Y-13994190D01*
X12014048Y-13994190D02*
X12023572Y-13984667D01*
X12023572Y-13984667D02*
X12042619Y-13975143D01*
X12042619Y-13975143D02*
X12071191Y-13975143D01*
X12071191Y-13975143D02*
X12090238Y-13984667D01*
X12090238Y-13984667D02*
X12099762Y-13994190D01*
X12099762Y-13994190D02*
X12109286Y-14013238D01*
X12109286Y-14013238D02*
X12109286Y-14070381D01*
X12109286Y-14070381D02*
X12099762Y-14089428D01*
X12099762Y-14089428D02*
X12090238Y-14098952D01*
X12090238Y-14098952D02*
X12071191Y-14108476D01*
X12071191Y-14108476D02*
X12042619Y-14108476D01*
X12166429Y-13975143D02*
X12242619Y-13975143D01*
X12195000Y-13908476D02*
X12195000Y-14079905D01*
X12195000Y-14079905D02*
X12204524Y-14098952D01*
X12204524Y-14098952D02*
X12223572Y-14108476D01*
X12223572Y-14108476D02*
X12242619Y-14108476D01*
X12429286Y-13975143D02*
X12429286Y-14175143D01*
X12429286Y-13984667D02*
X12448333Y-13975143D01*
X12448333Y-13975143D02*
X12486429Y-13975143D01*
X12486429Y-13975143D02*
X12505476Y-13984667D01*
X12505476Y-13984667D02*
X12515000Y-13994190D01*
X12515000Y-13994190D02*
X12524524Y-14013238D01*
X12524524Y-14013238D02*
X12524524Y-14070381D01*
X12524524Y-14070381D02*
X12515000Y-14089428D01*
X12515000Y-14089428D02*
X12505476Y-14098952D01*
X12505476Y-14098952D02*
X12486429Y-14108476D01*
X12486429Y-14108476D02*
X12448333Y-14108476D01*
X12448333Y-14108476D02*
X12429286Y-14098952D01*
X12638810Y-14108476D02*
X12619762Y-14098952D01*
X12619762Y-14098952D02*
X12610238Y-14079905D01*
X12610238Y-14079905D02*
X12610238Y-13908476D01*
X12800714Y-14108476D02*
X12800714Y-14003714D01*
X12800714Y-14003714D02*
X12791191Y-13984667D01*
X12791191Y-13984667D02*
X12772143Y-13975143D01*
X12772143Y-13975143D02*
X12734048Y-13975143D01*
X12734048Y-13975143D02*
X12715000Y-13984667D01*
X12800714Y-14098952D02*
X12781667Y-14108476D01*
X12781667Y-14108476D02*
X12734048Y-14108476D01*
X12734048Y-14108476D02*
X12715000Y-14098952D01*
X12715000Y-14098952D02*
X12705476Y-14079905D01*
X12705476Y-14079905D02*
X12705476Y-14060857D01*
X12705476Y-14060857D02*
X12715000Y-14041809D01*
X12715000Y-14041809D02*
X12734048Y-14032286D01*
X12734048Y-14032286D02*
X12781667Y-14032286D01*
X12781667Y-14032286D02*
X12800714Y-14022762D01*
X12867381Y-13975143D02*
X12943572Y-13975143D01*
X12895953Y-13908476D02*
X12895953Y-14079905D01*
X12895953Y-14079905D02*
X12905476Y-14098952D01*
X12905476Y-14098952D02*
X12924524Y-14108476D01*
X12924524Y-14108476D02*
X12943572Y-14108476D01*
X13086429Y-14098952D02*
X13067381Y-14108476D01*
X13067381Y-14108476D02*
X13029286Y-14108476D01*
X13029286Y-14108476D02*
X13010238Y-14098952D01*
X13010238Y-14098952D02*
X13000714Y-14079905D01*
X13000714Y-14079905D02*
X13000714Y-14003714D01*
X13000714Y-14003714D02*
X13010238Y-13984667D01*
X13010238Y-13984667D02*
X13029286Y-13975143D01*
X13029286Y-13975143D02*
X13067381Y-13975143D01*
X13067381Y-13975143D02*
X13086429Y-13984667D01*
X13086429Y-13984667D02*
X13095953Y-14003714D01*
X13095953Y-14003714D02*
X13095953Y-14022762D01*
X13095953Y-14022762D02*
X13000714Y-14041809D01*
X13267381Y-14108476D02*
X13267381Y-13908476D01*
X13267381Y-14098952D02*
X13248334Y-14108476D01*
X13248334Y-14108476D02*
X13210238Y-14108476D01*
X13210238Y-14108476D02*
X13191191Y-14098952D01*
X13191191Y-14098952D02*
X13181667Y-14089428D01*
X13181667Y-14089428D02*
X13172143Y-14070381D01*
X13172143Y-14070381D02*
X13172143Y-14013238D01*
X13172143Y-14013238D02*
X13181667Y-13994190D01*
X13181667Y-13994190D02*
X13191191Y-13984667D01*
X13191191Y-13984667D02*
X13210238Y-13975143D01*
X13210238Y-13975143D02*
X13248334Y-13975143D01*
X13248334Y-13975143D02*
X13267381Y-13984667D01*
X13343572Y-14184667D02*
X13353095Y-14175143D01*
X13353095Y-14175143D02*
X13372143Y-14146571D01*
X13372143Y-14146571D02*
X13381667Y-14127524D01*
X13381667Y-14127524D02*
X13391191Y-14098952D01*
X13391191Y-14098952D02*
X13400714Y-14051333D01*
X13400714Y-14051333D02*
X13400714Y-14013238D01*
X13400714Y-14013238D02*
X13391191Y-13965619D01*
X13391191Y-13965619D02*
X13381667Y-13937048D01*
X13381667Y-13937048D02*
X13372143Y-13918000D01*
X13372143Y-13918000D02*
X13353095Y-13889428D01*
X13353095Y-13889428D02*
X13343572Y-13879905D01*
X6695000Y-14225180D02*
X6695000Y-14425180D01*
X6595000Y-14325180D02*
X6795000Y-14325180D01*
X7128333Y-14265323D02*
X7128333Y-14398656D01*
X7080714Y-14189132D02*
X7033095Y-14331989D01*
X7033095Y-14331989D02*
X7156905Y-14331989D01*
X7233095Y-14379608D02*
X7242619Y-14389132D01*
X7242619Y-14389132D02*
X7233095Y-14398656D01*
X7233095Y-14398656D02*
X7223571Y-14389132D01*
X7223571Y-14389132D02*
X7233095Y-14379608D01*
X7233095Y-14379608D02*
X7233095Y-14398656D01*
X7366428Y-14198656D02*
X7385476Y-14198656D01*
X7385476Y-14198656D02*
X7404524Y-14208180D01*
X7404524Y-14208180D02*
X7414048Y-14217704D01*
X7414048Y-14217704D02*
X7423571Y-14236751D01*
X7423571Y-14236751D02*
X7433095Y-14274847D01*
X7433095Y-14274847D02*
X7433095Y-14322466D01*
X7433095Y-14322466D02*
X7423571Y-14360561D01*
X7423571Y-14360561D02*
X7414048Y-14379608D01*
X7414048Y-14379608D02*
X7404524Y-14389132D01*
X7404524Y-14389132D02*
X7385476Y-14398656D01*
X7385476Y-14398656D02*
X7366428Y-14398656D01*
X7366428Y-14398656D02*
X7347381Y-14389132D01*
X7347381Y-14389132D02*
X7337857Y-14379608D01*
X7337857Y-14379608D02*
X7328333Y-14360561D01*
X7328333Y-14360561D02*
X7318809Y-14322466D01*
X7318809Y-14322466D02*
X7318809Y-14274847D01*
X7318809Y-14274847D02*
X7328333Y-14236751D01*
X7328333Y-14236751D02*
X7337857Y-14217704D01*
X7337857Y-14217704D02*
X7347381Y-14208180D01*
X7347381Y-14208180D02*
X7366428Y-14198656D01*
X7556905Y-14198656D02*
X7575952Y-14198656D01*
X7575952Y-14198656D02*
X7595000Y-14208180D01*
X7595000Y-14208180D02*
X7604524Y-14217704D01*
X7604524Y-14217704D02*
X7614048Y-14236751D01*
X7614048Y-14236751D02*
X7623571Y-14274847D01*
X7623571Y-14274847D02*
X7623571Y-14322466D01*
X7623571Y-14322466D02*
X7614048Y-14360561D01*
X7614048Y-14360561D02*
X7604524Y-14379608D01*
X7604524Y-14379608D02*
X7595000Y-14389132D01*
X7595000Y-14389132D02*
X7575952Y-14398656D01*
X7575952Y-14398656D02*
X7556905Y-14398656D01*
X7556905Y-14398656D02*
X7537857Y-14389132D01*
X7537857Y-14389132D02*
X7528333Y-14379608D01*
X7528333Y-14379608D02*
X7518809Y-14360561D01*
X7518809Y-14360561D02*
X7509286Y-14322466D01*
X7509286Y-14322466D02*
X7509286Y-14274847D01*
X7509286Y-14274847D02*
X7518809Y-14236751D01*
X7518809Y-14236751D02*
X7528333Y-14217704D01*
X7528333Y-14217704D02*
X7537857Y-14208180D01*
X7537857Y-14208180D02*
X7556905Y-14198656D01*
X7747381Y-14198656D02*
X7766429Y-14198656D01*
X7766429Y-14198656D02*
X7785476Y-14208180D01*
X7785476Y-14208180D02*
X7795000Y-14217704D01*
X7795000Y-14217704D02*
X7804524Y-14236751D01*
X7804524Y-14236751D02*
X7814048Y-14274847D01*
X7814048Y-14274847D02*
X7814048Y-14322466D01*
X7814048Y-14322466D02*
X7804524Y-14360561D01*
X7804524Y-14360561D02*
X7795000Y-14379608D01*
X7795000Y-14379608D02*
X7785476Y-14389132D01*
X7785476Y-14389132D02*
X7766429Y-14398656D01*
X7766429Y-14398656D02*
X7747381Y-14398656D01*
X7747381Y-14398656D02*
X7728333Y-14389132D01*
X7728333Y-14389132D02*
X7718809Y-14379608D01*
X7718809Y-14379608D02*
X7709286Y-14360561D01*
X7709286Y-14360561D02*
X7699762Y-14322466D01*
X7699762Y-14322466D02*
X7699762Y-14274847D01*
X7699762Y-14274847D02*
X7709286Y-14236751D01*
X7709286Y-14236751D02*
X7718809Y-14217704D01*
X7718809Y-14217704D02*
X7728333Y-14208180D01*
X7728333Y-14208180D02*
X7747381Y-14198656D01*
X7899762Y-14398656D02*
X7899762Y-14265323D01*
X7899762Y-14284370D02*
X7909286Y-14274847D01*
X7909286Y-14274847D02*
X7928333Y-14265323D01*
X7928333Y-14265323D02*
X7956905Y-14265323D01*
X7956905Y-14265323D02*
X7975952Y-14274847D01*
X7975952Y-14274847D02*
X7985476Y-14293894D01*
X7985476Y-14293894D02*
X7985476Y-14398656D01*
X7985476Y-14293894D02*
X7995000Y-14274847D01*
X7995000Y-14274847D02*
X8014048Y-14265323D01*
X8014048Y-14265323D02*
X8042619Y-14265323D01*
X8042619Y-14265323D02*
X8061667Y-14274847D01*
X8061667Y-14274847D02*
X8071190Y-14293894D01*
X8071190Y-14293894D02*
X8071190Y-14398656D01*
X8166429Y-14398656D02*
X8166429Y-14265323D01*
X8166429Y-14284370D02*
X8175952Y-14274847D01*
X8175952Y-14274847D02*
X8195000Y-14265323D01*
X8195000Y-14265323D02*
X8223571Y-14265323D01*
X8223571Y-14265323D02*
X8242619Y-14274847D01*
X8242619Y-14274847D02*
X8252143Y-14293894D01*
X8252143Y-14293894D02*
X8252143Y-14398656D01*
X8252143Y-14293894D02*
X8261667Y-14274847D01*
X8261667Y-14274847D02*
X8280714Y-14265323D01*
X8280714Y-14265323D02*
X8309286Y-14265323D01*
X8309286Y-14265323D02*
X8328333Y-14274847D01*
X8328333Y-14274847D02*
X8337857Y-14293894D01*
X8337857Y-14293894D02*
X8337857Y-14398656D01*
X8695952Y-14189132D02*
X8524524Y-14446275D01*
X8920714Y-14198656D02*
X8939762Y-14198656D01*
X8939762Y-14198656D02*
X8958810Y-14208180D01*
X8958810Y-14208180D02*
X8968333Y-14217704D01*
X8968333Y-14217704D02*
X8977857Y-14236751D01*
X8977857Y-14236751D02*
X8987381Y-14274847D01*
X8987381Y-14274847D02*
X8987381Y-14322466D01*
X8987381Y-14322466D02*
X8977857Y-14360561D01*
X8977857Y-14360561D02*
X8968333Y-14379608D01*
X8968333Y-14379608D02*
X8958810Y-14389132D01*
X8958810Y-14389132D02*
X8939762Y-14398656D01*
X8939762Y-14398656D02*
X8920714Y-14398656D01*
X8920714Y-14398656D02*
X8901667Y-14389132D01*
X8901667Y-14389132D02*
X8892143Y-14379608D01*
X8892143Y-14379608D02*
X8882619Y-14360561D01*
X8882619Y-14360561D02*
X8873095Y-14322466D01*
X8873095Y-14322466D02*
X8873095Y-14274847D01*
X8873095Y-14274847D02*
X8882619Y-14236751D01*
X8882619Y-14236751D02*
X8892143Y-14217704D01*
X8892143Y-14217704D02*
X8901667Y-14208180D01*
X8901667Y-14208180D02*
X8920714Y-14198656D01*
X9073095Y-14379608D02*
X9082619Y-14389132D01*
X9082619Y-14389132D02*
X9073095Y-14398656D01*
X9073095Y-14398656D02*
X9063572Y-14389132D01*
X9063572Y-14389132D02*
X9073095Y-14379608D01*
X9073095Y-14379608D02*
X9073095Y-14398656D01*
X9273095Y-14398656D02*
X9158810Y-14398656D01*
X9215952Y-14398656D02*
X9215952Y-14198656D01*
X9215952Y-14198656D02*
X9196905Y-14227228D01*
X9196905Y-14227228D02*
X9177857Y-14246275D01*
X9177857Y-14246275D02*
X9158810Y-14255799D01*
X9454048Y-14198656D02*
X9358810Y-14198656D01*
X9358810Y-14198656D02*
X9349286Y-14293894D01*
X9349286Y-14293894D02*
X9358810Y-14284370D01*
X9358810Y-14284370D02*
X9377857Y-14274847D01*
X9377857Y-14274847D02*
X9425476Y-14274847D01*
X9425476Y-14274847D02*
X9444524Y-14284370D01*
X9444524Y-14284370D02*
X9454048Y-14293894D01*
X9454048Y-14293894D02*
X9463572Y-14312942D01*
X9463572Y-14312942D02*
X9463572Y-14360561D01*
X9463572Y-14360561D02*
X9454048Y-14379608D01*
X9454048Y-14379608D02*
X9444524Y-14389132D01*
X9444524Y-14389132D02*
X9425476Y-14398656D01*
X9425476Y-14398656D02*
X9377857Y-14398656D01*
X9377857Y-14398656D02*
X9358810Y-14389132D01*
X9358810Y-14389132D02*
X9349286Y-14379608D01*
X9530238Y-14198656D02*
X9663572Y-14198656D01*
X9663572Y-14198656D02*
X9577857Y-14398656D01*
X9835000Y-14198656D02*
X9739762Y-14198656D01*
X9739762Y-14198656D02*
X9730238Y-14293894D01*
X9730238Y-14293894D02*
X9739762Y-14284370D01*
X9739762Y-14284370D02*
X9758810Y-14274847D01*
X9758810Y-14274847D02*
X9806429Y-14274847D01*
X9806429Y-14274847D02*
X9825476Y-14284370D01*
X9825476Y-14284370D02*
X9835000Y-14293894D01*
X9835000Y-14293894D02*
X9844524Y-14312942D01*
X9844524Y-14312942D02*
X9844524Y-14360561D01*
X9844524Y-14360561D02*
X9835000Y-14379608D01*
X9835000Y-14379608D02*
X9825476Y-14389132D01*
X9825476Y-14389132D02*
X9806429Y-14398656D01*
X9806429Y-14398656D02*
X9758810Y-14398656D01*
X9758810Y-14398656D02*
X9739762Y-14389132D01*
X9739762Y-14389132D02*
X9730238Y-14379608D01*
X9920714Y-14198656D02*
X9920714Y-14236751D01*
X9996905Y-14198656D02*
X9996905Y-14236751D01*
X10259762Y-14474847D02*
X10250238Y-14465323D01*
X10250238Y-14465323D02*
X10231191Y-14436751D01*
X10231191Y-14436751D02*
X10221667Y-14417704D01*
X10221667Y-14417704D02*
X10212143Y-14389132D01*
X10212143Y-14389132D02*
X10202619Y-14341513D01*
X10202619Y-14341513D02*
X10202619Y-14303418D01*
X10202619Y-14303418D02*
X10212143Y-14255799D01*
X10212143Y-14255799D02*
X10221667Y-14227228D01*
X10221667Y-14227228D02*
X10231191Y-14208180D01*
X10231191Y-14208180D02*
X10250238Y-14179608D01*
X10250238Y-14179608D02*
X10259762Y-14170085D01*
X10326429Y-14217704D02*
X10335953Y-14208180D01*
X10335953Y-14208180D02*
X10355000Y-14198656D01*
X10355000Y-14198656D02*
X10402619Y-14198656D01*
X10402619Y-14198656D02*
X10421667Y-14208180D01*
X10421667Y-14208180D02*
X10431191Y-14217704D01*
X10431191Y-14217704D02*
X10440714Y-14236751D01*
X10440714Y-14236751D02*
X10440714Y-14255799D01*
X10440714Y-14255799D02*
X10431191Y-14284370D01*
X10431191Y-14284370D02*
X10316905Y-14398656D01*
X10316905Y-14398656D02*
X10440714Y-14398656D01*
X10507381Y-14198656D02*
X10640714Y-14198656D01*
X10640714Y-14198656D02*
X10555000Y-14398656D01*
X10836905Y-14398656D02*
X10836905Y-14198656D01*
X10922619Y-14398656D02*
X10922619Y-14293894D01*
X10922619Y-14293894D02*
X10913095Y-14274847D01*
X10913095Y-14274847D02*
X10894048Y-14265323D01*
X10894048Y-14265323D02*
X10865476Y-14265323D01*
X10865476Y-14265323D02*
X10846429Y-14274847D01*
X10846429Y-14274847D02*
X10836905Y-14284370D01*
X11046429Y-14398656D02*
X11027381Y-14389132D01*
X11027381Y-14389132D02*
X11017857Y-14379608D01*
X11017857Y-14379608D02*
X11008334Y-14360561D01*
X11008334Y-14360561D02*
X11008334Y-14303418D01*
X11008334Y-14303418D02*
X11017857Y-14284370D01*
X11017857Y-14284370D02*
X11027381Y-14274847D01*
X11027381Y-14274847D02*
X11046429Y-14265323D01*
X11046429Y-14265323D02*
X11075000Y-14265323D01*
X11075000Y-14265323D02*
X11094048Y-14274847D01*
X11094048Y-14274847D02*
X11103572Y-14284370D01*
X11103572Y-14284370D02*
X11113095Y-14303418D01*
X11113095Y-14303418D02*
X11113095Y-14360561D01*
X11113095Y-14360561D02*
X11103572Y-14379608D01*
X11103572Y-14379608D02*
X11094048Y-14389132D01*
X11094048Y-14389132D02*
X11075000Y-14398656D01*
X11075000Y-14398656D02*
X11046429Y-14398656D01*
X11227381Y-14398656D02*
X11208333Y-14389132D01*
X11208333Y-14389132D02*
X11198810Y-14370085D01*
X11198810Y-14370085D02*
X11198810Y-14198656D01*
X11379762Y-14389132D02*
X11360714Y-14398656D01*
X11360714Y-14398656D02*
X11322619Y-14398656D01*
X11322619Y-14398656D02*
X11303572Y-14389132D01*
X11303572Y-14389132D02*
X11294048Y-14370085D01*
X11294048Y-14370085D02*
X11294048Y-14293894D01*
X11294048Y-14293894D02*
X11303572Y-14274847D01*
X11303572Y-14274847D02*
X11322619Y-14265323D01*
X11322619Y-14265323D02*
X11360714Y-14265323D01*
X11360714Y-14265323D02*
X11379762Y-14274847D01*
X11379762Y-14274847D02*
X11389286Y-14293894D01*
X11389286Y-14293894D02*
X11389286Y-14312942D01*
X11389286Y-14312942D02*
X11294048Y-14331989D01*
X11465476Y-14389132D02*
X11484524Y-14398656D01*
X11484524Y-14398656D02*
X11522619Y-14398656D01*
X11522619Y-14398656D02*
X11541667Y-14389132D01*
X11541667Y-14389132D02*
X11551191Y-14370085D01*
X11551191Y-14370085D02*
X11551191Y-14360561D01*
X11551191Y-14360561D02*
X11541667Y-14341513D01*
X11541667Y-14341513D02*
X11522619Y-14331989D01*
X11522619Y-14331989D02*
X11494048Y-14331989D01*
X11494048Y-14331989D02*
X11475000Y-14322466D01*
X11475000Y-14322466D02*
X11465476Y-14303418D01*
X11465476Y-14303418D02*
X11465476Y-14293894D01*
X11465476Y-14293894D02*
X11475000Y-14274847D01*
X11475000Y-14274847D02*
X11494048Y-14265323D01*
X11494048Y-14265323D02*
X11522619Y-14265323D01*
X11522619Y-14265323D02*
X11541667Y-14274847D01*
X11617857Y-14474847D02*
X11627381Y-14465323D01*
X11627381Y-14465323D02*
X11646429Y-14436751D01*
X11646429Y-14436751D02*
X11655953Y-14417704D01*
X11655953Y-14417704D02*
X11665476Y-14389132D01*
X11665476Y-14389132D02*
X11675000Y-14341513D01*
X11675000Y-14341513D02*
X11675000Y-14303418D01*
X11675000Y-14303418D02*
X11665476Y-14255799D01*
X11665476Y-14255799D02*
X11655953Y-14227228D01*
X11655953Y-14227228D02*
X11646429Y-14208180D01*
X11646429Y-14208180D02*
X11627381Y-14179608D01*
X11627381Y-14179608D02*
X11617857Y-14170085D01*
X11947381Y-14474847D02*
X11937857Y-14465323D01*
X11937857Y-14465323D02*
X11918810Y-14436751D01*
X11918810Y-14436751D02*
X11909286Y-14417704D01*
X11909286Y-14417704D02*
X11899762Y-14389132D01*
X11899762Y-14389132D02*
X11890238Y-14341513D01*
X11890238Y-14341513D02*
X11890238Y-14303418D01*
X11890238Y-14303418D02*
X11899762Y-14255799D01*
X11899762Y-14255799D02*
X11909286Y-14227228D01*
X11909286Y-14227228D02*
X11918810Y-14208180D01*
X11918810Y-14208180D02*
X11937857Y-14179608D01*
X11937857Y-14179608D02*
X11947381Y-14170085D01*
X12023572Y-14265323D02*
X12023572Y-14398656D01*
X12023572Y-14284370D02*
X12033095Y-14274847D01*
X12033095Y-14274847D02*
X12052143Y-14265323D01*
X12052143Y-14265323D02*
X12080714Y-14265323D01*
X12080714Y-14265323D02*
X12099762Y-14274847D01*
X12099762Y-14274847D02*
X12109286Y-14293894D01*
X12109286Y-14293894D02*
X12109286Y-14398656D01*
X12233095Y-14398656D02*
X12214048Y-14389132D01*
X12214048Y-14389132D02*
X12204524Y-14379608D01*
X12204524Y-14379608D02*
X12195000Y-14360561D01*
X12195000Y-14360561D02*
X12195000Y-14303418D01*
X12195000Y-14303418D02*
X12204524Y-14284370D01*
X12204524Y-14284370D02*
X12214048Y-14274847D01*
X12214048Y-14274847D02*
X12233095Y-14265323D01*
X12233095Y-14265323D02*
X12261667Y-14265323D01*
X12261667Y-14265323D02*
X12280714Y-14274847D01*
X12280714Y-14274847D02*
X12290238Y-14284370D01*
X12290238Y-14284370D02*
X12299762Y-14303418D01*
X12299762Y-14303418D02*
X12299762Y-14360561D01*
X12299762Y-14360561D02*
X12290238Y-14379608D01*
X12290238Y-14379608D02*
X12280714Y-14389132D01*
X12280714Y-14389132D02*
X12261667Y-14398656D01*
X12261667Y-14398656D02*
X12233095Y-14398656D01*
X12356905Y-14265323D02*
X12433095Y-14265323D01*
X12385476Y-14198656D02*
X12385476Y-14370085D01*
X12385476Y-14370085D02*
X12395000Y-14389132D01*
X12395000Y-14389132D02*
X12414048Y-14398656D01*
X12414048Y-14398656D02*
X12433095Y-14398656D01*
X12619762Y-14265323D02*
X12619762Y-14465323D01*
X12619762Y-14274847D02*
X12638810Y-14265323D01*
X12638810Y-14265323D02*
X12676905Y-14265323D01*
X12676905Y-14265323D02*
X12695953Y-14274847D01*
X12695953Y-14274847D02*
X12705476Y-14284370D01*
X12705476Y-14284370D02*
X12715000Y-14303418D01*
X12715000Y-14303418D02*
X12715000Y-14360561D01*
X12715000Y-14360561D02*
X12705476Y-14379608D01*
X12705476Y-14379608D02*
X12695953Y-14389132D01*
X12695953Y-14389132D02*
X12676905Y-14398656D01*
X12676905Y-14398656D02*
X12638810Y-14398656D01*
X12638810Y-14398656D02*
X12619762Y-14389132D01*
X12829286Y-14398656D02*
X12810238Y-14389132D01*
X12810238Y-14389132D02*
X12800714Y-14370085D01*
X12800714Y-14370085D02*
X12800714Y-14198656D01*
X12991191Y-14398656D02*
X12991191Y-14293894D01*
X12991191Y-14293894D02*
X12981667Y-14274847D01*
X12981667Y-14274847D02*
X12962619Y-14265323D01*
X12962619Y-14265323D02*
X12924524Y-14265323D01*
X12924524Y-14265323D02*
X12905476Y-14274847D01*
X12991191Y-14389132D02*
X12972143Y-14398656D01*
X12972143Y-14398656D02*
X12924524Y-14398656D01*
X12924524Y-14398656D02*
X12905476Y-14389132D01*
X12905476Y-14389132D02*
X12895953Y-14370085D01*
X12895953Y-14370085D02*
X12895953Y-14351037D01*
X12895953Y-14351037D02*
X12905476Y-14331989D01*
X12905476Y-14331989D02*
X12924524Y-14322466D01*
X12924524Y-14322466D02*
X12972143Y-14322466D01*
X12972143Y-14322466D02*
X12991191Y-14312942D01*
X13057857Y-14265323D02*
X13134048Y-14265323D01*
X13086429Y-14198656D02*
X13086429Y-14370085D01*
X13086429Y-14370085D02*
X13095953Y-14389132D01*
X13095953Y-14389132D02*
X13115000Y-14398656D01*
X13115000Y-14398656D02*
X13134048Y-14398656D01*
X13276905Y-14389132D02*
X13257857Y-14398656D01*
X13257857Y-14398656D02*
X13219762Y-14398656D01*
X13219762Y-14398656D02*
X13200714Y-14389132D01*
X13200714Y-14389132D02*
X13191191Y-14370085D01*
X13191191Y-14370085D02*
X13191191Y-14293894D01*
X13191191Y-14293894D02*
X13200714Y-14274847D01*
X13200714Y-14274847D02*
X13219762Y-14265323D01*
X13219762Y-14265323D02*
X13257857Y-14265323D01*
X13257857Y-14265323D02*
X13276905Y-14274847D01*
X13276905Y-14274847D02*
X13286429Y-14293894D01*
X13286429Y-14293894D02*
X13286429Y-14312942D01*
X13286429Y-14312942D02*
X13191191Y-14331989D01*
X13457857Y-14398656D02*
X13457857Y-14198656D01*
X13457857Y-14389132D02*
X13438810Y-14398656D01*
X13438810Y-14398656D02*
X13400714Y-14398656D01*
X13400714Y-14398656D02*
X13381667Y-14389132D01*
X13381667Y-14389132D02*
X13372143Y-14379608D01*
X13372143Y-14379608D02*
X13362619Y-14360561D01*
X13362619Y-14360561D02*
X13362619Y-14303418D01*
X13362619Y-14303418D02*
X13372143Y-14284370D01*
X13372143Y-14284370D02*
X13381667Y-14274847D01*
X13381667Y-14274847D02*
X13400714Y-14265323D01*
X13400714Y-14265323D02*
X13438810Y-14265323D01*
X13438810Y-14265323D02*
X13457857Y-14274847D01*
X13534048Y-14474847D02*
X13543572Y-14465323D01*
X13543572Y-14465323D02*
X13562619Y-14436751D01*
X13562619Y-14436751D02*
X13572143Y-14417704D01*
X13572143Y-14417704D02*
X13581667Y-14389132D01*
X13581667Y-14389132D02*
X13591191Y-14341513D01*
X13591191Y-14341513D02*
X13591191Y-14303418D01*
X13591191Y-14303418D02*
X13581667Y-14255799D01*
X13581667Y-14255799D02*
X13572143Y-14227228D01*
X13572143Y-14227228D02*
X13562619Y-14208180D01*
X13562619Y-14208180D02*
X13543572Y-14179608D01*
X13543572Y-14179608D02*
X13534048Y-14170085D01*
M02*
