M48
; DRILL file {KiCad (7.0.0)} date Wed Jan 17 20:31:42 2024
; FORMAT={-:-/ absolute / metric / decimal}
; #@! TF.CreationDate,2024-01-17T20:31:42+01:00
; #@! TF.GenerationSoftware,Kicad,Pcbnew,(7.0.0)
; #@! TF.FileFunction,Plated,1,2,PTH
FMAT,2
METRIC
; #@! TA.AperFunction,Plated,PTH,ViaDrill
T1C0.200
; #@! TA.AperFunction,Plated,PTH,ViaDrill
T2C0.300
; #@! TA.AperFunction,Plated,PTH,ViaDrill
T3C0.400
; #@! TA.AperFunction,Plated,PTH,ComponentDrill
T4C0.400
; #@! TA.AperFunction,Plated,PTH,ComponentDrill
T5C1.000
; #@! TA.AperFunction,Plated,PTH,ComponentDrill
T6C1.342
; #@! TA.AperFunction,Plated,PTH,ComponentDrill
T7C1.500
%
G90
G05
T1
X185.15Y-57.453
X186.25Y-57.453
T2
X188.225Y-49.6
X189.0Y-46.704
X189.274Y-49.6
X190.7Y-96.1
X191.429Y-95.443
T3
X176.7Y-92.1
X182.81Y-75.99
X183.1Y-92.1
X184.5Y-69.5
X184.5Y-74.9
X184.773Y-77.953
X184.8Y-82.0
X184.8Y-86.724
X184.8Y-87.6
X184.8Y-94.8
X184.9Y-46.9
X185.4Y-91.8
X186.3Y-48.3
X186.3Y-89.6
X186.9Y-56.3
X190.7Y-59.3
X191.0Y-50.9
X191.3Y-52.0
X191.7Y-74.7
X191.8Y-68.7
X193.109Y-56.591
X193.9Y-91.5
X194.5Y-55.6
X195.0Y-90.0
X195.2Y-82.9
X195.9Y-80.4
X196.2Y-82.9
X196.624Y-79.693
X197.0Y-67.4
X197.4Y-63.0
X197.9Y-73.5
X198.5Y-99.2
X199.0Y-73.8
X199.75Y-86.45
X199.8Y-71.0
T4
X185.95Y-43.83
X186.35Y-43.13
X186.75Y-43.83
X187.15Y-43.13
X187.55Y-43.83
X187.95Y-43.13
X188.35Y-43.83
X189.15Y-43.83
X189.55Y-43.13
X189.95Y-43.83
X190.35Y-43.13
X190.75Y-43.83
X191.15Y-43.13
X191.55Y-43.83
T5
X184.527Y-102.3
X184.527Y-104.8
X184.527Y-107.3
X199.027Y-102.3
X199.027Y-107.3
T6
X184.48Y-37.95
X184.48Y-42.68
X193.02Y-37.95
X193.02Y-42.68
T7
X73.8Y-42.85
X73.8Y-61.9
X73.8Y-80.95
X73.8Y-100.0
X75.07Y-40.31
X75.07Y-59.36
X75.07Y-78.41
X75.07Y-97.46
X80.15Y-40.31
X80.15Y-59.36
X80.15Y-78.41
X80.15Y-97.46
X81.42Y-42.85
X81.42Y-61.9
X81.42Y-80.95
X81.42Y-100.0
X92.85Y-42.85
X92.85Y-61.9
X92.85Y-80.95
X92.85Y-100.0
X94.12Y-40.31
X94.12Y-59.36
X94.12Y-78.41
X94.12Y-97.46
X99.2Y-40.31
X99.2Y-59.36
X99.2Y-78.41
X99.2Y-97.46
X100.47Y-42.85
X100.47Y-61.9
X100.47Y-80.95
X100.47Y-100.0
X111.9Y-42.85
X111.9Y-61.9
X111.9Y-80.95
X111.9Y-100.0
X113.17Y-40.31
X113.17Y-59.36
X113.17Y-78.41
X113.17Y-97.46
X118.25Y-40.31
X118.25Y-59.36
X118.25Y-78.41
X118.25Y-97.46
X119.52Y-42.85
X119.52Y-61.9
X119.52Y-80.95
X119.52Y-100.0
X130.95Y-42.85
X130.95Y-61.9
X130.95Y-80.95
X130.95Y-100.0
X132.22Y-40.31
X132.22Y-59.36
X132.22Y-78.41
X132.22Y-97.46
X137.3Y-40.31
X137.3Y-59.36
X137.3Y-78.41
X137.3Y-97.46
X138.57Y-42.85
X138.57Y-61.9
X138.57Y-80.95
X138.57Y-100.0
X145.237Y-119.05
X146.507Y-116.51
X150.0Y-42.85
X150.0Y-61.9
X150.0Y-80.95
X150.0Y-100.0
X151.27Y-40.31
X151.27Y-59.36
X151.27Y-78.41
X151.27Y-97.46
X151.588Y-116.51
X152.857Y-119.05
X156.35Y-40.31
X156.35Y-59.36
X156.35Y-78.41
X156.35Y-97.46
X157.62Y-42.85
X157.62Y-61.9
X157.62Y-80.95
X157.62Y-100.0
X164.287Y-119.05
X165.558Y-116.51
X169.05Y-42.85
X169.05Y-61.9
X169.05Y-80.95
X169.05Y-100.0
X170.32Y-40.31
X170.32Y-59.36
X170.32Y-78.41
X170.32Y-97.46
X170.637Y-116.51
X171.907Y-119.05
X175.4Y-40.31
X175.4Y-59.36
X175.4Y-78.41
X175.4Y-97.46
X176.67Y-42.85
X176.67Y-61.9
X176.67Y-80.95
X176.67Y-100.0
X183.338Y-119.05
X184.607Y-116.51
X189.688Y-116.51
X190.957Y-119.05
T7
X191.377Y-99.2G85X192.677Y-99.2
G05
X191.377Y-110.4G85X192.677Y-110.4
G05
T0
M30
