G04 #@! TF.GenerationSoftware,KiCad,Pcbnew,(7.0.0)*
G04 #@! TF.CreationDate,2024-01-17T20:31:31+01:00*
G04 #@! TF.ProjectId,junon-kb,6a756e6f-6e2d-46b6-922e-6b696361645f,rev?*
G04 #@! TF.SameCoordinates,Original*
G04 #@! TF.FileFunction,Paste,Top*
G04 #@! TF.FilePolarity,Positive*
%FSLAX46Y46*%
G04 Gerber Fmt 4.6, Leading zero omitted, Abs format (unit mm)*
G04 Created by KiCad (PCBNEW (7.0.0)) date 2024-01-17 20:31:31*
%MOMM*%
%LPD*%
G01*
G04 APERTURE LIST*
G04 Aperture macros list*
%AMRotRect*
0 Rectangle, with rotation*
0 The origin of the aperture is its center*
0 $1 length*
0 $2 width*
0 $3 Rotation angle, in degrees counterclockwise*
0 Add horizontal line*
21,1,$1,$2,0,0,$3*%
G04 Aperture macros list end*
%ADD10RotRect,1.200000X1.400000X315.000000*%
%ADD11RotRect,0.700000X1.500000X225.000000*%
%ADD12RotRect,0.650000X0.700000X45.000000*%
%ADD13R,0.650000X0.700000*%
%ADD14RotRect,0.600000X0.620000X45.000000*%
%ADD15R,0.600000X0.620000*%
%ADD16RotRect,0.600000X0.620000X135.000000*%
%ADD17R,0.620000X0.600000*%
%ADD18RotRect,0.609600X0.254000X225.000000*%
%ADD19RotRect,0.660400X1.295400X225.000000*%
%ADD20R,0.711200X0.762000*%
%ADD21R,1.219200X0.762000*%
%ADD22R,0.330200X0.685800*%
%ADD23RotRect,0.855600X1.250000X135.000000*%
%ADD24RotRect,0.863600X0.965200X135.000000*%
%ADD25R,1.250000X0.855600*%
%ADD26R,0.200000X1.000000*%
%ADD27R,0.300000X1.200000*%
%ADD28R,0.304800X1.193800*%
%ADD29R,1.193800X0.304800*%
%ADD30R,0.508000X0.952500*%
%ADD31RotRect,0.863600X0.965200X225.000000*%
%ADD32RotRect,0.558800X0.939800X225.000000*%
%ADD33R,0.558800X1.041400*%
%ADD34R,0.855600X1.250000*%
%ADD35RotRect,2.794000X2.209800X315.000000*%
%ADD36RotRect,2.794000X2.794000X315.000000*%
G04 APERTURE END LIST*
D10*
X192462131Y-75906496D03*
X190906496Y-77462131D03*
X192037867Y-78593502D03*
X193593502Y-77037867D03*
D11*
X196915182Y-71709259D03*
X197813208Y-70811233D03*
X198711233Y-69913208D03*
X199609259Y-69015182D03*
X195684816Y-65090739D03*
X194786790Y-65988765D03*
X193888765Y-66886790D03*
X192990739Y-67784816D03*
D12*
X187322702Y-55477296D03*
X188277296Y-54522702D03*
D13*
X183424999Y-51752699D03*
X184774999Y-51752699D03*
D14*
X189774730Y-75525268D03*
X190425268Y-74874730D03*
D15*
X186319999Y-90499999D03*
X185399999Y-90499999D03*
D16*
X183725268Y-87725268D03*
X183074730Y-87074730D03*
D15*
X195139999Y-81999999D03*
X196059999Y-81999999D03*
D17*
X193899999Y-92439999D03*
X193899999Y-93359999D03*
D16*
X184125268Y-77325268D03*
X183474730Y-76674730D03*
D18*
X190619308Y-52587796D03*
X190265755Y-52234243D03*
X189912202Y-51880690D03*
X188780690Y-53012202D03*
X189134243Y-53365755D03*
X189487796Y-53719308D03*
D19*
X189699999Y-52799999D03*
D20*
X186899999Y-52925499D03*
X186899999Y-51274499D03*
D21*
X182623599Y-49999999D03*
X185976399Y-49999999D03*
D22*
X188250000Y-48911199D03*
X188749999Y-48911199D03*
X189249998Y-48911199D03*
X189249998Y-47488799D03*
X188749999Y-47488799D03*
X188250000Y-47488799D03*
D23*
X182356053Y-90456053D03*
X181043945Y-89143945D03*
D24*
X183265755Y-89065755D03*
X182134243Y-87934243D03*
D25*
X188399999Y-76627799D03*
X188399999Y-74772199D03*
X183599999Y-59608299D03*
X183599999Y-57752699D03*
D26*
X188749999Y-40499999D03*
X188749999Y-37399999D03*
D27*
X191499999Y-45079999D03*
X190999999Y-45079999D03*
X190499999Y-45079999D03*
X189999999Y-45079999D03*
X189499999Y-45079999D03*
X188999999Y-45079999D03*
X188499999Y-45079999D03*
X187999999Y-45079999D03*
X187499999Y-45079999D03*
X186999999Y-45079999D03*
X186499999Y-45079999D03*
X185999999Y-45079999D03*
D28*
X193499999Y-82000000D03*
X193000000Y-82000000D03*
X192499998Y-82000000D03*
X191999999Y-82000000D03*
X191500000Y-82000000D03*
X190999999Y-82000000D03*
X190499999Y-82000000D03*
X189999998Y-82000000D03*
X189499999Y-82000000D03*
X189000000Y-82000000D03*
X188499998Y-82000000D03*
X187999999Y-82000000D03*
D29*
X186500000Y-83499999D03*
X186500000Y-83999998D03*
X186500000Y-84500000D03*
X186500000Y-84999999D03*
X186500000Y-85499998D03*
X186500000Y-85999999D03*
X186500000Y-86499999D03*
X186500000Y-87000000D03*
X186500000Y-87499999D03*
X186500000Y-87999998D03*
X186500000Y-88500000D03*
X186500000Y-88999999D03*
D28*
X187999999Y-90499998D03*
X188499998Y-90499998D03*
X189000000Y-90499998D03*
X189499999Y-90499998D03*
X189999998Y-90499998D03*
X190499999Y-90499998D03*
X190999999Y-90499998D03*
X191500000Y-90499998D03*
X191999999Y-90499998D03*
X192499998Y-90499998D03*
X193000000Y-90499998D03*
X193499999Y-90499998D03*
D29*
X194999998Y-88999999D03*
X194999998Y-88500000D03*
X194999998Y-87999998D03*
X194999998Y-87499999D03*
X194999998Y-87000000D03*
X194999998Y-86499999D03*
X194999998Y-85999999D03*
X194999998Y-85499998D03*
X194999998Y-84999999D03*
X194999998Y-84500000D03*
X194999998Y-83999998D03*
X194999998Y-83499999D03*
D30*
X185699999Y-53699999D03*
X184749998Y-53699999D03*
X183799997Y-53699999D03*
X183799997Y-56252699D03*
X185699999Y-56252699D03*
D31*
X187065755Y-58634243D03*
X185934243Y-59765755D03*
D32*
X193165755Y-64634243D03*
X192034243Y-65765755D03*
D33*
X184900099Y-47999999D03*
X183299899Y-47999999D03*
X192899899Y-47999999D03*
X194500099Y-47999999D03*
D34*
X178872199Y-91699999D03*
X180727799Y-91699999D03*
D35*
X190736618Y-55781951D03*
X194623273Y-62362682D03*
D36*
X184091228Y-62427340D03*
D35*
X192712274Y-53806294D03*
D25*
X186599999Y-76627799D03*
X186599999Y-74772199D03*
M02*
