G04 #@! TF.GenerationSoftware,KiCad,Pcbnew,(7.0.0)*
G04 #@! TF.CreationDate,2024-01-17T20:31:31+01:00*
G04 #@! TF.ProjectId,junon-kb,6a756e6f-6e2d-46b6-922e-6b696361645f,rev?*
G04 #@! TF.SameCoordinates,Original*
G04 #@! TF.FileFunction,Soldermask,Top*
G04 #@! TF.FilePolarity,Negative*
%FSLAX46Y46*%
G04 Gerber Fmt 4.6, Leading zero omitted, Abs format (unit mm)*
G04 Created by KiCad (PCBNEW (7.0.0)) date 2024-01-17 20:31:31*
%MOMM*%
%LPD*%
G01*
G04 APERTURE LIST*
G04 Aperture macros list*
%AMRotRect*
0 Rectangle, with rotation*
0 The origin of the aperture is its center*
0 $1 length*
0 $2 width*
0 $3 Rotation angle, in degrees counterclockwise*
0 Add horizontal line*
21,1,$1,$2,0,0,$3*%
%AMOutline4P*
0 Free polygon, 4 corners , with rotation*
0 The origin of the aperture is its center*
0 number of corners: always 4*
0 $1 to $8 corner X, Y*
0 $9 Rotation angle, in degrees counterclockwise*
0 create outline with 4 corners*
4,1,4,$1,$2,$3,$4,$5,$6,$7,$8,$1,$2,$9*%
G04 Aperture macros list end*
%ADD10RotRect,1.200000X1.400000X315.000000*%
%ADD11C,1.700000*%
%ADD12C,4.000000*%
%ADD13C,2.200000*%
%ADD14RotRect,0.700000X1.500000X225.000000*%
%ADD15RotRect,0.650000X0.700000X45.000000*%
%ADD16R,0.650000X0.700000*%
%ADD17RotRect,0.600000X0.620000X45.000000*%
%ADD18R,0.600000X0.620000*%
%ADD19RotRect,0.600000X0.620000X135.000000*%
%ADD20R,0.620000X0.600000*%
%ADD21RotRect,0.609600X0.254000X225.000000*%
%ADD22RotRect,0.660400X1.295400X225.000000*%
%ADD23R,0.711200X0.762000*%
%ADD24R,1.219200X0.762000*%
%ADD25R,0.330200X0.685800*%
%ADD26RotRect,0.855600X1.250000X135.000000*%
%ADD27RotRect,0.863600X0.965200X135.000000*%
%ADD28R,1.250000X0.855600*%
%ADD29C,1.701800*%
%ADD30C,0.650000*%
%ADD31C,2.012000*%
%ADD32R,0.200000X1.000000*%
%ADD33R,0.300000X1.200000*%
%ADD34R,0.304800X1.193800*%
%ADD35R,1.193800X0.304800*%
%ADD36R,0.508000X0.952500*%
%ADD37RotRect,0.863600X0.965200X225.000000*%
%ADD38RotRect,0.558800X0.939800X225.000000*%
%ADD39R,0.558800X1.041400*%
%ADD40R,2.000000X2.000000*%
%ADD41C,2.000000*%
%ADD42R,3.200000X2.000000*%
%ADD43R,4.000000X1.000000*%
%ADD44R,0.855600X1.250000*%
%ADD45RotRect,2.794000X2.209800X315.000000*%
%ADD46RotRect,2.794000X2.794000X315.000000*%
%ADD47Outline4P,-1.143000X-1.512000X1.143000X-0.012000X1.143000X0.012000X-1.143000X1.512000X0.000000*%
G04 APERTURE END LIST*
D10*
X192462131Y-75906496D03*
X190906496Y-77462131D03*
X192037867Y-78593502D03*
X193593502Y-77037867D03*
D11*
X182067500Y-121590000D03*
D12*
X187147500Y-121590000D03*
D11*
X192227500Y-121590000D03*
D13*
X184607500Y-116510000D03*
X189687500Y-116510000D03*
X183337500Y-119050000D03*
X190957500Y-119050000D03*
D11*
X167780000Y-102540000D03*
D12*
X172860000Y-102540000D03*
D11*
X177940000Y-102540000D03*
D13*
X170320000Y-97460000D03*
X175400000Y-97460000D03*
X169050000Y-100000000D03*
X176670000Y-100000000D03*
D11*
X167780000Y-83490000D03*
D12*
X172860000Y-83490000D03*
D11*
X177940000Y-83490000D03*
D13*
X170320000Y-78410000D03*
X175400000Y-78410000D03*
X169050000Y-80950000D03*
X176670000Y-80950000D03*
D11*
X167780000Y-64440000D03*
D12*
X172860000Y-64440000D03*
D11*
X177940000Y-64440000D03*
D13*
X170320000Y-59360000D03*
X175400000Y-59360000D03*
X169050000Y-61900000D03*
X176670000Y-61900000D03*
D11*
X167780000Y-45390000D03*
D12*
X172860000Y-45390000D03*
D11*
X177940000Y-45390000D03*
D13*
X170320000Y-40310000D03*
X175400000Y-40310000D03*
X169050000Y-42850000D03*
X176670000Y-42850000D03*
D11*
X163017500Y-121590000D03*
D12*
X168097500Y-121590000D03*
D11*
X173177500Y-121590000D03*
D13*
X165557500Y-116510000D03*
X170637500Y-116510000D03*
X164287500Y-119050000D03*
X171907500Y-119050000D03*
D11*
X148730000Y-102540000D03*
D12*
X153810000Y-102540000D03*
D11*
X158890000Y-102540000D03*
D13*
X151270000Y-97460000D03*
X156350000Y-97460000D03*
X150000000Y-100000000D03*
X157620000Y-100000000D03*
D11*
X148730000Y-83490000D03*
D12*
X153810000Y-83490000D03*
D11*
X158890000Y-83490000D03*
D13*
X151270000Y-78410000D03*
X156350000Y-78410000D03*
X150000000Y-80950000D03*
X157620000Y-80950000D03*
D11*
X148730000Y-64440000D03*
D12*
X153810000Y-64440000D03*
D11*
X158890000Y-64440000D03*
D13*
X151270000Y-59360000D03*
X156350000Y-59360000D03*
X150000000Y-61900000D03*
X157620000Y-61900000D03*
D11*
X148730000Y-45390000D03*
D12*
X153810000Y-45390000D03*
D11*
X158890000Y-45390000D03*
D13*
X151270000Y-40310000D03*
X156350000Y-40310000D03*
X150000000Y-42850000D03*
X157620000Y-42850000D03*
D11*
X143967500Y-121590000D03*
D12*
X149047500Y-121590000D03*
D11*
X154127500Y-121590000D03*
D13*
X146507500Y-116510000D03*
X151587500Y-116510000D03*
X145237500Y-119050000D03*
X152857500Y-119050000D03*
D11*
X129680000Y-102540000D03*
D12*
X134760000Y-102540000D03*
D11*
X139840000Y-102540000D03*
D13*
X132220000Y-97460000D03*
X137300000Y-97460000D03*
X130950000Y-100000000D03*
X138570000Y-100000000D03*
D11*
X129680000Y-83490000D03*
D12*
X134760000Y-83490000D03*
D11*
X139840000Y-83490000D03*
D13*
X132220000Y-78410000D03*
X137300000Y-78410000D03*
X130950000Y-80950000D03*
X138570000Y-80950000D03*
D11*
X129680000Y-64440000D03*
D12*
X134760000Y-64440000D03*
D11*
X139840000Y-64440000D03*
D13*
X132220000Y-59360000D03*
X137300000Y-59360000D03*
X130950000Y-61900000D03*
X138570000Y-61900000D03*
D11*
X129680000Y-45390000D03*
D12*
X134760000Y-45390000D03*
D11*
X139840000Y-45390000D03*
D13*
X132220000Y-40310000D03*
X137300000Y-40310000D03*
X130950000Y-42850000D03*
X138570000Y-42850000D03*
D11*
X110630000Y-102540000D03*
D12*
X115710000Y-102540000D03*
D11*
X120790000Y-102540000D03*
D13*
X113170000Y-97460000D03*
X118250000Y-97460000D03*
X111900000Y-100000000D03*
X119520000Y-100000000D03*
D11*
X110630000Y-83490000D03*
D12*
X115710000Y-83490000D03*
D11*
X120790000Y-83490000D03*
D13*
X113170000Y-78410000D03*
X118250000Y-78410000D03*
X111900000Y-80950000D03*
X119520000Y-80950000D03*
D11*
X110630000Y-64440000D03*
D12*
X115710000Y-64440000D03*
D11*
X120790000Y-64440000D03*
D13*
X113170000Y-59360000D03*
X118250000Y-59360000D03*
X111900000Y-61900000D03*
X119520000Y-61900000D03*
D11*
X110630000Y-45390000D03*
D12*
X115710000Y-45390000D03*
D11*
X120790000Y-45390000D03*
D13*
X113170000Y-40310000D03*
X118250000Y-40310000D03*
X111900000Y-42850000D03*
X119520000Y-42850000D03*
D11*
X91580000Y-102540000D03*
D12*
X96660000Y-102540000D03*
D11*
X101740000Y-102540000D03*
D13*
X94120000Y-97460000D03*
X99200000Y-97460000D03*
X92850000Y-100000000D03*
X100470000Y-100000000D03*
D11*
X91580000Y-83490000D03*
D12*
X96660000Y-83490000D03*
D11*
X101740000Y-83490000D03*
D13*
X94120000Y-78410000D03*
X99200000Y-78410000D03*
X92850000Y-80950000D03*
X100470000Y-80950000D03*
D11*
X91580000Y-64440000D03*
D12*
X96660000Y-64440000D03*
D11*
X101740000Y-64440000D03*
D13*
X94120000Y-59360000D03*
X99200000Y-59360000D03*
X92850000Y-61900000D03*
X100470000Y-61900000D03*
D11*
X91580000Y-45390000D03*
D12*
X96660000Y-45390000D03*
D11*
X101740000Y-45390000D03*
D13*
X94120000Y-40310000D03*
X99200000Y-40310000D03*
X92850000Y-42850000D03*
X100470000Y-42850000D03*
D11*
X72530000Y-102540000D03*
D12*
X77610000Y-102540000D03*
D11*
X82690000Y-102540000D03*
D13*
X75070000Y-97460000D03*
X80150000Y-97460000D03*
X73800000Y-100000000D03*
X81420000Y-100000000D03*
D11*
X72530000Y-83490000D03*
D12*
X77610000Y-83490000D03*
D11*
X82690000Y-83490000D03*
D13*
X75070000Y-78410000D03*
X80150000Y-78410000D03*
X73800000Y-80950000D03*
X81420000Y-80950000D03*
D11*
X72530000Y-64440000D03*
D12*
X77610000Y-64440000D03*
D11*
X82690000Y-64440000D03*
D13*
X75070000Y-59360000D03*
X80150000Y-59360000D03*
X73800000Y-61900000D03*
X81420000Y-61900000D03*
D11*
X72530000Y-45390000D03*
D12*
X77610000Y-45390000D03*
D11*
X82690000Y-45390000D03*
D13*
X75070000Y-40310000D03*
X80150000Y-40310000D03*
X73800000Y-42850000D03*
X81420000Y-42850000D03*
D14*
X196915182Y-71709259D03*
X197813208Y-70811233D03*
X198711233Y-69913208D03*
X199609259Y-69015182D03*
X195684816Y-65090739D03*
X194786790Y-65988765D03*
X193888765Y-66886790D03*
X192990739Y-67784816D03*
D15*
X187322702Y-55477296D03*
X188277296Y-54522702D03*
D16*
X183424999Y-51752699D03*
X184774999Y-51752699D03*
D17*
X189774730Y-75525268D03*
X190425268Y-74874730D03*
D18*
X186319999Y-90499999D03*
X185399999Y-90499999D03*
D19*
X183725268Y-87725268D03*
X183074730Y-87074730D03*
D18*
X195139999Y-81999999D03*
X196059999Y-81999999D03*
D20*
X193899999Y-92439999D03*
X193899999Y-93359999D03*
D19*
X184125268Y-77325268D03*
X183474730Y-76674730D03*
D21*
X190619308Y-52587796D03*
X190265755Y-52234243D03*
X189912202Y-51880690D03*
X188780690Y-53012202D03*
X189134243Y-53365755D03*
X189487796Y-53719308D03*
D22*
X189699999Y-52799999D03*
D23*
X186899999Y-52925499D03*
X186899999Y-51274499D03*
D24*
X182623599Y-49999999D03*
X185976399Y-49999999D03*
D25*
X188250000Y-48911199D03*
X188749999Y-48911199D03*
X189249998Y-48911199D03*
X189249998Y-47488799D03*
X188749999Y-47488799D03*
X188250000Y-47488799D03*
D26*
X182356053Y-90456053D03*
X181043945Y-89143945D03*
D27*
X183265755Y-89065755D03*
X182134243Y-87934243D03*
D28*
X188399999Y-76627799D03*
X188399999Y-74772199D03*
X183599999Y-59608299D03*
X183599999Y-57752699D03*
D29*
X192581164Y-59171100D03*
X187624062Y-64128202D03*
D30*
X186750000Y-43830000D03*
X190750000Y-43830000D03*
D31*
X184480000Y-42680000D03*
X193020000Y-42680000D03*
X184480000Y-37950000D03*
X193020000Y-37950000D03*
D32*
X188749999Y-40499999D03*
X188749999Y-37399999D03*
D33*
X191499999Y-45079999D03*
X190999999Y-45079999D03*
X190499999Y-45079999D03*
X189999999Y-45079999D03*
X189499999Y-45079999D03*
X188999999Y-45079999D03*
X188499999Y-45079999D03*
X187999999Y-45079999D03*
X187499999Y-45079999D03*
X186999999Y-45079999D03*
X186499999Y-45079999D03*
X185999999Y-45079999D03*
D30*
X185950000Y-43830000D03*
X186350000Y-43130000D03*
X187150000Y-43130000D03*
X187550000Y-43830000D03*
X187950000Y-43130000D03*
X188350000Y-43830000D03*
X189150000Y-43830000D03*
X189550000Y-43130000D03*
X189950000Y-43830000D03*
X190350000Y-43130000D03*
X191150000Y-43130000D03*
X191550000Y-43830000D03*
D34*
X193499999Y-82000000D03*
X193000000Y-82000000D03*
X192499998Y-82000000D03*
X191999999Y-82000000D03*
X191500000Y-82000000D03*
X190999999Y-82000000D03*
X190499999Y-82000000D03*
X189999998Y-82000000D03*
X189499999Y-82000000D03*
X189000000Y-82000000D03*
X188499998Y-82000000D03*
X187999999Y-82000000D03*
D35*
X186500000Y-83499999D03*
X186500000Y-83999998D03*
X186500000Y-84500000D03*
X186500000Y-84999999D03*
X186500000Y-85499998D03*
X186500000Y-85999999D03*
X186500000Y-86499999D03*
X186500000Y-87000000D03*
X186500000Y-87499999D03*
X186500000Y-87999998D03*
X186500000Y-88500000D03*
X186500000Y-88999999D03*
D34*
X187999999Y-90499998D03*
X188499998Y-90499998D03*
X189000000Y-90499998D03*
X189499999Y-90499998D03*
X189999998Y-90499998D03*
X190499999Y-90499998D03*
X190999999Y-90499998D03*
X191500000Y-90499998D03*
X191999999Y-90499998D03*
X192499998Y-90499998D03*
X193000000Y-90499998D03*
X193499999Y-90499998D03*
D35*
X194999998Y-88999999D03*
X194999998Y-88500000D03*
X194999998Y-87999998D03*
X194999998Y-87499999D03*
X194999998Y-87000000D03*
X194999998Y-86499999D03*
X194999998Y-85999999D03*
X194999998Y-85499998D03*
X194999998Y-84999999D03*
X194999998Y-84500000D03*
X194999998Y-83999998D03*
X194999998Y-83499999D03*
D36*
X185699999Y-53699999D03*
X184749998Y-53699999D03*
X183799997Y-53699999D03*
X183799997Y-56252699D03*
X185699999Y-56252699D03*
D37*
X187065755Y-58634243D03*
X185934243Y-59765755D03*
D38*
X193165755Y-64634243D03*
X192034243Y-65765755D03*
D39*
X184900099Y-47999999D03*
X183299899Y-47999999D03*
X192899899Y-47999999D03*
X194500099Y-47999999D03*
D40*
X184527121Y-102299999D03*
D41*
X184527122Y-107300000D03*
X184527122Y-104800000D03*
D42*
X192027121Y-99199999D03*
X192027121Y-110399999D03*
D41*
X199027122Y-107300000D03*
X199027122Y-102300000D03*
D43*
X198499999Y-89199999D03*
X198499999Y-91199999D03*
X198499999Y-93199999D03*
X198499999Y-95199999D03*
X198499999Y-97199999D03*
D44*
X178872199Y-91699999D03*
X180727799Y-91699999D03*
D45*
X190736618Y-55781951D03*
X194623273Y-62362682D03*
D46*
X184091228Y-62427340D03*
D45*
X192712274Y-53806294D03*
D28*
X186599999Y-76627799D03*
X186599999Y-74772199D03*
D47*
X199600000Y-63000000D03*
M02*
