G04 #@! TF.GenerationSoftware,KiCad,Pcbnew,(7.0.0)*
G04 #@! TF.CreationDate,2024-01-17T20:31:31+01:00*
G04 #@! TF.ProjectId,junon-kb,6a756e6f-6e2d-46b6-922e-6b696361645f,rev?*
G04 #@! TF.SameCoordinates,Original*
G04 #@! TF.FileFunction,Profile,NP*
%FSLAX46Y46*%
G04 Gerber Fmt 4.6, Leading zero omitted, Abs format (unit mm)*
G04 Created by KiCad (PCBNEW (7.0.0)) date 2024-01-17 20:31:31*
%MOMM*%
%LPD*%
G01*
G04 APERTURE LIST*
G04 #@! TA.AperFunction,Profile*
%ADD10C,0.100000*%
G04 #@! TD*
G04 APERTURE END LIST*
D10*
X201000032Y-60456854D02*
G75*
G03*
X200414213Y-59042640I-2000032J-46D01*
G01*
X194214188Y-50014187D02*
G75*
G03*
X194214214Y-52842639I1414212J-1414213D01*
G01*
X200414214Y-43814213D02*
G75*
G03*
X201000000Y-42400000I-1414214J1414213D01*
G01*
X201000000Y-42400000D02*
X201000000Y-38000000D01*
X194214214Y-50014213D02*
X200414214Y-43814213D01*
X200414213Y-59042640D02*
X194214213Y-52842640D01*
X201000000Y-88700000D02*
X201000000Y-60456854D01*
X201000000Y-110171573D02*
X201000000Y-97700000D01*
X201000000Y-38000000D02*
G75*
G03*
X199000000Y-36000000I-2000000J0D01*
G01*
X197000000Y-129000000D02*
X197000000Y-115828427D01*
X70000000Y-112000000D02*
X137000000Y-112000000D01*
X197585773Y-114414199D02*
G75*
G03*
X197000000Y-115828427I1414227J-1414201D01*
G01*
X70000000Y-36000000D02*
G75*
G03*
X68000000Y-38000000I0J-2000000D01*
G01*
X200414228Y-111585800D02*
G75*
G03*
X201000000Y-110171573I-1414228J1414200D01*
G01*
X199000000Y-36000000D02*
X70000000Y-36000000D01*
X139000000Y-129000000D02*
G75*
G03*
X141000000Y-131000000I2000000J0D01*
G01*
X68000000Y-38000000D02*
X68000000Y-110000000D01*
X139000000Y-114000000D02*
X139000000Y-129000000D01*
X139000000Y-114000000D02*
G75*
G03*
X137000000Y-112000000I-2000000J0D01*
G01*
X141000000Y-131000000D02*
X195000000Y-131000000D01*
X195000000Y-131000000D02*
G75*
G03*
X197000000Y-129000000I0J2000000D01*
G01*
X68000000Y-110000000D02*
G75*
G03*
X70000000Y-112000000I2000000J0D01*
G01*
X197585787Y-114414213D02*
X200414214Y-111585786D01*
X198200000Y-93900000D02*
G75*
G03*
X198200000Y-94500000I0J-300000D01*
G01*
X201000000Y-94500000D02*
X201000000Y-97700000D01*
X201000000Y-94500000D02*
X198200000Y-94500000D01*
X201000000Y-93900000D02*
X198200000Y-93900000D01*
X201000000Y-88700000D02*
X201000000Y-93900000D01*
M02*
